<mxfile host="65bd71144e" modified="2021-02-14T13:01:17.307Z" agent="5.0 (Windows NT 10.0; Win64; x64) AppleWebKit/537.36 (KHTML, like Gecko) Code/1.52.1 Chrome/83.0.4103.122 Electron/9.3.5 Safari/537.36" etag="uj_ruP7oH-Ysz2bylA7z" version="14.2.4" type="embed">
    <diagram id="788LZnRloNamWMVBwUGM" name="Page-1">
        <mxGraphModel dx="1177" dy="537" grid="1" gridSize="10" guides="1" tooltips="1" connect="1" arrows="1" fold="1" page="1" pageScale="1" pageWidth="850" pageHeight="1100" math="0" shadow="0">
            <root>
                <mxCell id="0"/>
                <mxCell id="1" parent="0"/>
                <mxCell id="37" style="edgeStyle=orthogonalEdgeStyle;rounded=0;orthogonalLoop=1;jettySize=auto;html=1;entryX=-0.004;entryY=0.333;entryDx=0;entryDy=0;entryPerimeter=0;fontColor=#007FFF;fillColor=#1ba1e2;strokeColor=#006EAF;" edge="1" parent="1" source="2" target="31">
                    <mxGeometry relative="1" as="geometry"/>
                </mxCell>
                <mxCell id="2" value="" style="aspect=fixed;html=1;points=[];align=center;image;fontSize=12;image=img/lib/mscae/Azure_Pipelines&#9;.svg;" parent="1" vertex="1">
                    <mxGeometry x="187.5" y="285.5" width="50" height="50" as="geometry"/>
                </mxCell>
                <mxCell id="3" value="&lt;font color=&quot;#007fff&quot;&gt;dependabot-core&lt;/font&gt;" style="aspect=fixed;html=1;points=[];align=center;image;fontSize=12;image=img/lib/mscae/Docker.svg;" parent="1" vertex="1">
                    <mxGeometry x="360" y="274.5" width="50" height="41" as="geometry"/>
                </mxCell>
                <mxCell id="16" style="edgeStyle=orthogonalEdgeStyle;rounded=0;orthogonalLoop=1;jettySize=auto;html=1;fillColor=#1ba1e2;strokeColor=#006EAF;" edge="1" parent="1" source="4" target="9">
                    <mxGeometry relative="1" as="geometry"/>
                </mxCell>
                <mxCell id="4" value="" style="aspect=fixed;html=1;points=[];align=center;image;fontSize=12;image=img/lib/mscae/Azure_Repos.svg;" parent="1" vertex="1">
                    <mxGeometry x="70" y="380" width="45" height="50" as="geometry"/>
                </mxCell>
                <mxCell id="7" value="PR" style="shape=image;verticalLabelPosition=middle;labelBackgroundColor=none;verticalAlign=middle;aspect=fixed;imageAspect=0;image=data:image/png,iVBORw0KGgoAAAANSUhEUgAAAqMAAAOECAYAAACVQThSAAAABmJLR0QA/wD/AP+gvaeTAAAgAElEQVR4nOzdd7hmZ1kv/u/slMmkERISkgBJaCkQeld6JxAUaUcBBQSxHEX9HQWOHIGjKB4RDggepYM0MUjvZTAUparUJJSQQEhIIYH0Or8/nplkMpmy937fd92rfD7XdV8TSGbve6/1rvV897PWelYCAFu3a5I/qG4CAIDpWZfkI0nWVzcCAMC0bAqiGyKMAgDQoc2DqDAKAEBntgyiwigAAJ3YWhAVRgEAWLhtBVFhFACAhdpeEBVGAQBYmB0FUWEUAICFWE4QFUYBAJi75QZRYRQAgLlaSRAVRgEAmJuVBlFhFACAuVhNEBVGAQCY2WqDqDAKAMBMZgmiwiiwcEvVDQCwMOuSvDvJg6sbAdgWYRRgnARRYBCEUYDxEUSBwRBGAcZFEAUGRRgFGA9BFBgcYRRgHARRYJCEUYDhE0SBwRJGAYZNEAUGTRgFGC5BFBg8YRRgmARRYBSEUYDhEUSB0RBGAYZFEAVGRRgFGA5BFBgdYRRgGARRYJSEUYD+E0SB0RJGAfpNEAVGTRgF6C9BFBg9YRSgnwRRYBKEUYD+EUSByRBGAfpFEAUmRRgF6A9BFJgcYRSgHwRRYJKEUYB6gigwWcIoQC1BFJi0nasbAJiwdUnek+RB1Y0AVDEzClBDEAWIMApQQRAF2EgYBeiWIAqwGWEUoDuCKMAWhFGAbgiiAFshjAIsniAKsA3CKMBiCaIA2yGMAiyOIAqwA8IowGIIogDLIIwCzJ8gCrBMwijAfAmiACsgjALMjyAKsELCKMB8CKIAqyCMAsxOEAVYJWEUYDaCKMAMdq5ugGvZKclBSW6U5Aab1Q03/rnnxv9ubZLdt/L3L0py6cZ/viDJWUnOTHL2ZnVaktOTXLmQnwCmZdck/xRBFGDVhNHu7ZLkyCS3TXKrJIckOSzJTdJCaBf75PIkP0pyapLvJ/lBkm8k+WqSEzf+e2D7dk1yXJJjqxsBGDJhdLF2SXKHJD+/8c/bJjkqbRCrtEuSQzfWvbb4d5cl+WaSryX5SpLPJvmPJFd02SD0nCAKMCdrqhsYmd2T3DstfN4zyV2z9cvpQ3Nhki8k+UxaOD0+ycWlHUGdqQXRTyW5X3UTAGzdmiR3SvL8JF9Kmz3cMIG6YuPP+/yNP79fapiKdUk+mvpjsMtaP5ctB8DcrElyjyQvSfKd1A8UfaiTkrw4yd0jmDJeuyZ5b+qPN2EUYIJ2Sbsk96Yk56R+cOhznb1xOx27cbvBGExxRnRTrZ/D9gNglW6S5HlpT5xXDwhDrJOT/K8kN17hdoc+2TXJ+1J/PFXV+tk3IQArsXuS30i7J7J6EBhTfWnjdh3DA11Mx5RnRDfV+pm3IgDLcv0kz05bf7P65D/mOi3Js5Lss7zdAmWmPiO6qdbPuiEB2L5bpd3jeEnqT/pTqks2bvcjd7yLoHNmRK+p9TNuSwC24cgkb0l721D1yX7KdVlaKL3l9ncXdMaM6LVr/WybE4At3T5toLkq9Sd5dU1dtXG/3G7buw4WzozodWv9TFsUgKsdmuR1MRPa97osyavTVjKALpkR3Xqtn2WjApBcL8nL0kJO9UldLb8u27jf9r7uLoW5MyO67Vo/w3YFmLSdkjwzbRH26pO5Wn39KG1JqKXAYgii26/1q9+0ANN1uySfSf1JXM2v/jXJ0YH5cml+x7V+1VsXYIL2TvIPSa5M/Qlczb+u3Lh/9wrMzozo8mr9ajcwwNQ8Nhasn0qdluTRgdUTRJdf61e5jQEmY58kb079CVt1X29Me0ANVsKl+ZXV+tVtZoBpOCbJGak/Wau6OiPJwwLLY0Z05bV+VVsaYOTWpi37Y+F6tSHtc/CytM8FbIsgurpav5qNDTBmN03yhdSfoFX/6t+SHBK4LpfmV1/rV7G9AZZtaGs3PjrJfyW5S3Uj9NLdk3wtyaOqG6FX1iV5f5JHVDcCwHUNJYzulORFSf45lvVh+/ZO8s60z8tQPt8szrok70nyoOpGABiu6yV5b+ovVanh1b/E60SnzKX5+dT6lW54gJXo+8zREUm+nOTY6kYYpEelfX5uWd0InXNpHmAg+hxG75Xkc0luXt0Ig3aLtAeb7lndCJ1xaR5gQPoaRn85yceS7FvdCKOwX9rn6fHVjbBwgijAwPQxjD4jyT/GmpHM125pb+r69epGWJi1Sd4RQRRgUPoWRp+f5O/Tnp6Heds5yWuS/Gl1I8zdurSHldwjCsCqvSj1T42q6dSLwlh4s9Jia/3ydwXAMK1J8srUn3DV9OoVaZ8/hksQXXytX/beAFiFPlymf1GS365ugkn6nSR/Ud0Eq+YeUQBm9tLU/9av1N+EoTEj2l2tX+Y+AViVypnR5yX5/cLvD5v8YZLnVjfBslm+CYCZ/W7qf9tXavO6Km4XGYK18YrPrmv9svYMwCpVzIz+apKXFXxf2J41aQ80PbG6EbbJ8k0AI9R1GL1f2jqPnmCmj9YkeW2S+xb3wXW5NA8wUl2G0cOTHJdklw6/J6zUrmmf01tUN8LVBFGAEesqjO6f5IPxrnmGYb+0y8HXr24EQRRg7LoIo0tJ3pjk5h18L5iXI9M+t31Yi3eqrCMKMAFdDLQvSvKwDr4PzNuxSf68uomJ8rASwEQsOow+PskfLfh7wCI9O8ljq5uYGJfmASZkkWH0NmlPJsOQrUnyuiS3rm5kIgRRgIlZVBjdPck/JdljQV8furRnkrenBSUWxz2iABO0qDD6t0mOWtDXhgpHJ3lpdRMj5h5RgIlaRBh9fJKnLuDrQrVnxP2ji+DSPMCEzTuMHpLk7+f8NaFP/i7JwdVNjIggCjBx8wyja5L8Q5J95vg1oW9ukPY5Z3buEQVgrmH0aUkeOsevB331iCRPqW5i4NwjCkCS+YXRg5P89Zy+FgzBi5McUN3EQLk0D8DV5hVGX5rkenP6WjAE+yZ5SXUTAySIAnAt8wijj0zyuDl8HRiaJ8Rl5pUQRAG4jlnD6G6x9iLT9jdJdq1uYgA8rATAVs0aRp+V5GbzaAQG6vAk/6O6iZ7zsBIA27Rmhr97cJIT016VyGJdnLatz05yfpKLklyY5LwkG9L24z5pr1/dPcleaUsQHRGvsOzCz9K29RnVjfTQ2iTHRRAdslOTvK26iQU7d7M/N+Sac+t5Sa5KO/eetfHPyysahDGbJYy+KcmT5tUISdrJ7xtJPpvkhCTfSguhp2z8dyu1lOTQtKB05Ma6Z5Jbz6NZruV1SX69uomeEUQZo58kOTPXhNMzkpyc5KS08/b3IrDCiqw2jN49yedm+Ptc4+Qkn0zyiY1//riD73lgkvsnecDGPw/r4HuO3VVJ7pbkS9WN9MTaJO9M8vDqRqBjl6ed109Im0w4Me288I0kVxT2Bb212jD5qST3mWMfU/PjJG9J8vokXy/uJUlum+TJaU+HWztz9T6R5IHVTfSAIArXdWGSryT5QpLPb6xTSzuCAXtA2iVjtbK6NG2APjbJzive6t3YJW2prn9J67d6mw2x7rPirT4ua5O8P/X7Qakh1OlJ3p3kd5McFWBZ1qRdbqg+gIdU5yZ5ftoDRUOyf1rfm27kV8urz65iW4/FuiQfTf0+UGqodVbaEmi/keSmAbbqoak/WIdS56e9IvWGq9rS/XFg2lqaF6R+mw6lHrCqLT1sZkSVmn99Lcn/SXKPeEYDrvaF1B+cfa/L014TObSZ0B3ZP8nL0n6+6m3c9/rMKrfxUAmiSi2+fpjkFWkPne4UmCj3iu64jk9ym9Vu4IG4XVrYqt7Wfa97rXYDD4wgqlT3dVaS16Y9JOgNcEzKR1J/APa1vp/2YNKUHJtr1j9V1633r37TDoZ7RJWqr/PS1v1+YFzKZ+SOSltHsfqg62Mdl/b2oynaN8m7Ur8P+lhXpr0qdKzMiCrVv/py2pP5+wVG6FWpP8j6Vpcm+b1ZNupIrEnyB0kuS/0+6Vv93Qzbtc8EUaX6XZck+ee0h47NljIK+6e9G7364OpTfS/JXWbZqCN0t7TbFar3TZ/qwozvQTZBVKlh1TfTlopaFxiwP079wdSn+nCme1l+R/ZN8vHU76M+1f830xbtF0FUqeHWmUn+d4a/3CATtJQ2C1h9EPWlXhVLauzITklek/p91Zc6MeO4TOZhJaXGUVcmeV/a2qUwCPdJ/YHTl3p5Wjhnx5bS7pes3md9qZ+fbXOWMyOq1PjqqrRQetdAz7019QdMdV2Z5JmzbsiJemaswrAhyRtn3ZCFzIgqNf76TKa3PCEDcf0kF6X+IKmuZ8+6ISfuT1K/D6vrgiR7z7ohC5gRVWpa9Ykk9w30yNNSf2BU10tm3ook7TWi1fuyun5t5q3YLUFUqenW8UnuF+iBT6b+gKisV2ccD570wZp4qOkjM2/F7rg0r5TakDZTeodAkYPT7pWsPhCq6p/jqfl52ynJO1O/b6vq8iQHzLwVF08QVUptXlcleUeSwwILsq2nw39hO/9u7L6V5MlpYZz5uTJtu55U3EeVnZM8srqJHVib9ovYg6obAXpjTZLHJvlqkucm2b22HcZoW4HzcZ120R8XpR10F1Y3MlLnp322Lq5upEifj6u1aTPXD69uBOilvZL8Wdrayb8at7GxYDdIckXqLw1U1FPmsP3Ysaenfl9X1OXp59u7PKyklFppHZ/k1oE52NrM6EMyzfslX53k9dVNTMRUt/XOSR5c3cQW1qUtfG1GFFiJe6Vduv+HDHPpOnpka2F0iveLfTvJH1Q3MTG/l/aq2anp0/HlHlFgFktJfiMtlP5CcS8M2JZhdE36N3PThd+J+0S7dkGS/17dRIGHVDewkXtEgXk5NMm7k7xn4z/DimwZRu+Q5KCKRgq9KcnHqpuYqA8leVt1Ex27SZLbFPfg0jywCI9MckKSZ2Wat/uxSluG0QeWdFHnp2kHDXX+KO0p+ympPM5cmgcWabckL0rywbRfvmGHtgyj9ynpos4fJzmjuomJOy3Jc6qb6FjVcWZGFOjKg9OWgXpWprtuOcu0Zot/PjvJvkW9dO2kJLeKxe37YOe0k9bNqhvpyJlJDkxbHqUr7hEFqrwv7UEnkz9s1ea/rRyV6QTRpF1GEET74Yokf1XdRIcOSHLLDr+fIApUOjbJ19NeKgPXsXkYvWdZF937dtqDS/TH65N8v7qJDt2ro+/j0jzQB/ulveP+TUn2LO6Fntk8jN6jrIvuvTRmRfvm8iQvqW6iQ10cbx5WAvrmSUk+k+SI6kboj83vGf1akqOrGunQ6Wn3Jl5S3QjXsS5tIfwDqxvpwH+mLaW2KC7NA312QZLfTPKW6kaot2lmdG2SIysb6dDfRxDtq4uTvKq6iY7cKskuC/raLs0DfbdnkjcnOS7J9Yp7odimMHpE2hPNY7chfgvru6nsn12zmIeYXJoHhuTRcdl+8jaF0duWdtGdf03y3eom2K6T0k5MUzDv486MKDBERyf5UpLHVDdCjU1htPr1hF15Y3UDLMtU9tM8j7t1ae+FNiMKDNGeaU/bvygWyZ+cTTv8VqVddOOiJP9S3QTL8s5M477eeR13Ls0DY7Am7Y1Nb0uyR3EvdGhTGL15aRfd+FiSn1U3wbKcm+QT1U10YB5vnPLUPDA2j0vy2SSHFfdBR5bSfhM5tLqRDnyyugFWZAr766Yz/n1BFBir2yX5YpL7VTfC4i0luWGS3asb6cDHqxtgRT5W3UAH9kpyg1X+XQ8rAWN3g7Sx4LerG2GxljL77MwQnJ7kW9VNsCJfT/Lj6iY6sJrjz8NKwFTslOSVSV4WDzaN1lKmcU/G+rQ1RhmODUk+Vd1EBw5b4X8viAJT9HtJ3p5kt+pGmL+lJAdXN9GBT1c3wKpMYb/daAX/rafmgSl7bNqqOHtWN8J8LWX196wNyderG2BVprDflnv87ZHko3GPKDBtD0vy70kOqW6E+VlKsl91Ex04qboBVmUK+205x9/aJP+U5N4L7gVgCG6d9kbFW1Q3wnxMIYyek+TM6iZYldPT1hwdsx0df2ZEAa7rsCSfS3L74j6YgymE0ROqG2AmJ1Y3sGDbu0y/R5IPxowowNbsn/aA8j2qG2E2UwijU7jUO2Zj33/7buP/d2keYMf2SfulXSAdsKWM/6m006obYCanVjewYFs7/rxZCWD59km7nem+xX2wSktJdq1uYsHOr26AmZxd3cCCrd3if7tHFGDl9kzykSS/VN0IKyeM0nfnVDewYJsffy7NA6zerkneluSY6kZYmaVcd2ZmbITRYbuguoEF23T8mREFmN2uSd4V59JBMTNK311a3cCCrY2n5gHmade0t9Xdr7oRlmcpyS7VTSzY2GfWxm7sYXSXJP8YQRRgntalzZDesboRdmwpyRXVTSzY2Gd+x26n6gYW7Iok/y/JxdWNAIzM9ZJ8Msmdqhth+5Yy/kFwr+oGmMnY72m+OMnHkvxCxn8sAnTtekk+nPYKUXpqKckl1U0smDA6bLtVN7BgmwLox5I8NuO/LQGgazdIuy//RtWNsHVmRum7bb2haCw2P/4+kOTYjP+YBOjaIWm/9I99TBkkYZS+296728dgy+PPJXuAxTgqybsz/itugzOFy/TXr26AmRxQ3cCCbS10umQPsBj3SvKaJGuqG+EaU5gZPby6AWZyRHUDC7at488le4DFeEKSV1Y3wTWWMv51OMceZsZu7Ptve8efGVKAxfitJL9d3QTNUpIzqptYsJtm/MsDjdW6JIdWN7FgOzr+PpDk0RFIAebt5UkeWd0ELYz+sLqJBdspyS2rm2BVDk/7jI7Zco4/l+wB5m+nJG9PcufqRqZuKcnp1U10YOyXesdqCvttucefS/YA87cuLZBa8qnQFGZGk+Ru1Q2wKlPYbys5/syQAszfzZO8N14fXmYpyY+qm+jAA6obYFWmsN9WevxZhxRg/n4+yf+tbmKqlpKcVt1EB26f8S+ePjb7J7ltdRMdWM3xJ5ACzN9vJXlGdRNTtJTkx0muqm5kwZbSfuthOO6d8S9KfEWSs1b5d91DCjB/L0ty9+ompmYpbUD8fnEfXbh/dQOsyBT218lJrpzh71v2CWC+1ib557ia2qlNy+Z8vbSLbjy0ugGWbU2msb/mcdwJpADzdeMkr8/4r871xqYw+tXSLrpxeJKfq26CZblXkptVN9GBeR13nrIHmK9HJHlWdRNTMaWZ0ST5teoGWJap7Kd5HnceagKYrz+L5006sWkK+taZRiD9WZKDklxU3QjbtHvaQvB7VzfSgSOTnDjnr/mgJO9JW8gZgNn8IMkdkpxT3ciYbZoZPSnJZZWNdGTveA9t3z0q0wiiFyf5zgK+rhlSgPm5SZI3xv2jC7UpjF6eFkinYCqXgIdqKvvnxMz2JP32WPYJYH4enuTp1U2M2dJm//yfZV106yFpU+70z53TLjNPwaKPN0/ZA8zPS5LcorqJsdo8jP5rWRfdWpPkT6ubYKueV91Ah7o43jxlDzAfeyT5pyS7VDcyRlMMo0m7p+421U1wLXdOW0pjKro63txDCjAfd0zyR9VNjNHmYfTbSX5U1UjH1iR5TnUTXMuzqxvo0Klpb1/qikAKMB/PS3Lb6ibGZmmL//2Zki5qPDZtaR3q3SbJL1Y30aHPFnxPDzUBzG7XJK9NsnN1I2OyZRj9VEUTRXZO8upYrqHaUtqBvVN1Ix36VNH3dQ8pwOzunGk947BwW4bRT5d0UeeeSZ5Y3cTEPTnJXaqb6FjlcWaGFGB2z0pyu+omxmLLWcE1SX6cZP+CXqqcmXa5/tzqRiZovyQnJLlBdSMdOiPJwUk2FPfx8CTvTLK2uA+Aofp8kp9LclV1I0O35czohiTvrmik0AFJ/qa6iYl6aaYVRJN2fFUH0aRdsn9wkgurGwEYqLsl+Z3qJsZgyzCaJO/tvIt6v5bkYdVNTMwjMs1bJPp0fB2f5PFxyR5gtV6QNqnFDLb28M7atEvXU3g/+ObOS1tDrMsld6bqZkm+nGSf6kY6dm6SG6a9frdP7p3kg2mLOgOwMm9P8svVTQzZ1mZGL027hDc1+6S9XWHX6kZGbm3adp5aEE2S96d/QTRpM6THxCV7gNX4b3F1dSZbC6NJ8q5Ou+iPuyT5y+omRu6v05bFmKI+H1cCKcDqvTzJbtVNDNW21tjcO+1S/RSftL0qyWPS7+AwVI9NmxWd4tquF6etUtH3sOcpe4DV+Z8xobUq25oZ/VnaeoRTtJTkLWlrkDI/90nypkwziCbJR9L/IJq0W3QeHQ81AazUc5IcWN3EEG0rjCbJazrron/WpQ3Kd6huZCTumOR9mfYljFdXN7ACln0CWLm9krywuokh2t4s1c5JTklboHuqTk9b0Pb7xX0M2S3T3sU+pRcpbOnUJDfN8BZG9pQ9wMpclfb8yVeqGxmS7c2MXpHkH7tqpKcOSnsC+qDqRgbq4CTvybSDaNKOo6EF0cQ6pAArtZTkz6qbGJod3b930yTfyfZD6xScnrZsw39VNzIgt0+bVZt6kL8y7Tj6QXUjMzBDCrAyD0vy4eomhmJHIfPkJOu7aKTnDkryqbRBmR27T9rnZupBNEk+nmEH0cSyTwAr9ZK02x1ZhuXMeL5+4V0Mwz5ps0PHVDfSc8embacpLmq/NWM5fo5P8ri4ZA+wHEcleUJ1E0OxnGV2dkt7kMm7V5srkvyvJH+VZENxL32ylLasxQuS7FTcS1+ckeSwjCvAHZPkX2IdUoAdOTnJEennm/d6ZTkzo5ekTTfT7Jy2qO0n4zL0JgenXZb/8wiim/ubjCuIJm3W27JPADt20yRPrW5iCJa7APneabOjLr1e21lJnpjko9WNFHpI2tPiU39ifkvnJjk0yfnVjSyIh5oAduzUtCUOL6tupM+WO4t1aZL9kvz8AnsZoj2S/Le07fjvaZfwp2K3JM9L8ndpC/1ybS9LC2tjdUqS/0x7da6b9AG27nppqxJZjWc7VvJqxgPSFn9ft5hWBu+0JM9Me6/32D02yf/NtF+IsD0Xps2KnlPdSAfMkAJs3/fS7h2d0oTViqxk/dAzk7xhQX2MwY2SHJf22stDintZlEPTfr53RBDdntdlGkE0sewTwI7cLJ6s366VzIwm7b6Hb8VDKjtyXtrM4cvT7h0cun3TZn2fmXbJgW27Msnhab8JT4mn7AG27VtJjs4w38a3cCsNlT9JW6rmDvNvZVR2S3LfJL+Vdj/lV5NcVNnQKu2ftozVW9OeoN6ttp1BeG2SN1U3UeDbae9idg8pwHXtn+TrSb5Z3UgfrXRmNGmXo09KsvucexmzC5L8Q5LXJDmhuJflOCrJ05P8RtwLuBIXpM2Knl7dSCEzpABb99kk96xuYkz+NG3Bd7Xy+kaS56etP9YnN0vr65up30ZDrT9Z6UYfqXunBfPq/aGUUn2re4TrWM3MaNIuPZ+U5MA59jI1lyf5SJL3py2g/+2CHg5Pcv+0V3g+OC6vzuL0tHuqPcjTmCEFuK63pK1PzmZWG0aT5BlJ/n5ejZBT00LpJ9Km8k/JfG90Xkp7Gv6eSR6QFkJvMsevP3VPT7sNg2sIpADXdlnaldEfVTfSJ7OE0Z3TFnG91Zx64douTnLixjphY52e9nT+T9Jm4M5Lm/Zfk/Z2rD3SnnzfN23W+qgkR6atb3ZEPIC0KF9Pcvu0J+m5NoEU4NpemOS51U30ySxhNGmXdj8yj0ZgwB6U5OPVTfSYQDpsn0pyv+omFuz6G//cNe1tg/slOSjtVqYjk9wu7Zd7yxoyD2enrUd+cXUjY/Lm1N8QrFRVvTEsxzFJLkn9/lIrr/Vb2Z9TtEeS+yT5q7QHUav3ixp2PS1cbdaZ0aStnfWttN8kYUrOSrtN5ezqRgbCDOkwfSrjnxldjZsleUSSR6Ztn5W80RC+kORu1U30xTwOnrOS/O4cvg4MzX+PILoSH0y7tceKA4zB99LesvfAJDdO8uy0B1FhOe6advsHmd9vcm+Pe+aYlo8keUd1EwN0fJLHJbm0uhGYo9PTLt8fnuRJSf69th0G4knVDfTFPC7Tb3JI2n00e87xa0IfnZ/k1kl+UN3IgN07babUG77671NxmX417pH21LRtx7ack/ZWy8n/cj7Pe1xOTfK8OX496KvnRhCdlRlSxu7f0tZ0fnS8j5yt2y/JQ6ub6IN533D90iQfmvPXhD55f5K/rW5iJD6Y5JcikDJeG9Ie2rtNkqemzYTB5p5S3UAfzDuMbkjyhLS3B8HYnJx2j8+G6kZGxENNTMFVSV6f5BZJXhXnEK7x8CQHVzdRbRFLUZyblvTn+SpLqHZlkienvfWK+XLJnqk4L+1V2r+Q5IfFvdAPO6ed/yZtUeuirU+7cRvG4n+nhSYWwyV7puR9aQ9Bvrm6EXrhMdUNjNlSko+m/i0HSs1aH4kFrbty7yQXpH6fq2tq/Xb3GLN6YtptKtX7WdXVVUlukglb5AB7Vdrl+tMX+D1g0U5LuzzvtpNuuGTP1Lw5yX3jWYspW5Pk2OomKi16tue0tHtjLl7w94FFuCjtVX9+oeqWS/ZMzReT3CntaiLT9EvVDVTq4tLjF5P8SswsMSxXpt3H85XqRiZq01P2F1Q3Ah05J8kxaU/bMz33TXJAdRNVuroP7t1pC4XDUDw71sytdnzasicCKVNxZZLfTPKC6kbo3E5pV5InqcuHMv4yyWs6/H6wWq9K8uLqJkgikDI9G5I8P8kz44ri1Dy6uoEqXT8h/HtJvtDx94SV+FzaIEB/HJ/k8XEPKdPy8rQxc0N1I3TmPknWVTdRoeswenHafWBf7vj7wnJ8McnDklxS3QjX4R5SpuiVSX63ugk6s1taIJ2cirUTf5rkoUm+UfC9YVv+Iy3s/Ky6EbbJJXum6JVJXlTdBJ15YHUDFaoW8j47yf2TnFD0/WFz30r7BcmrPvtPIGWK/mc8czEVD6puoELlW2XOTPKIJD8q7AF+mBZuzqxuhGVzDylTsyHJb6e9DcipZb4AACAASURBVI5xu00muMRT9SsOv5v2W8BZxX0wTWemff5Orm6EFbMwPlNzeZJfTvK96kZYqDVJHlDdRNeqw2iSfDPJ3ZJ8p7oRJuU7Se4et4oMmYeamJpz09aivLC6ERbqwdUNdK0PYTRpM1MPTHJSdSNMwglp9yybER0+l+yZmq/HE/Zjd//qBrrWlzCaJKekzVR9troRRu0zSe6R5AfVjTA3ZkiZmtcneUV1EyzMIUluUt1El/oURpN2CeKYJOurG2GUPp62jqin5sfHDClT80dxNXHM7lzdQJf6FkaTts7jMUneVd0Io/LPaas3mD0bLw81MSWXJHl6vKFprO5S3UCX+hhGk3aQPTrJs+PdvMzmqrTPkVmzaXDJnik5Pi7Xj9Xdqhvg2h6TNrBsUGqF9dO0WXam595Jzk/9Z3AMtX6F255u7ZG23FP150TNt36a/k4Yzt0QftDj0p4sszg+K3Fa2lptH6xuhBLuIWUqLkzyB9VNMHd7J7lldRNdGUIYTZIvJLldkk8V98EwrE/7vHypuhFKuWTPVLwnyceqm2DuJnOpfihhNGnvsz8mbUkL2JbXpH1OzqluhF4wQ8pU/Gna5V3G447VDXRlSGE0SS5O8tQkD01yRnEv9MvpSR6S9nTpJcW90C9mSJmCf0+7rY3xuFV1A10ZWhjd5CNpl2HdD0iSfCDJ7ZN8tLoReuv4JA+PQMq4PTfJFdVNMDdHVDfQlaGG0SQ5M8kj4+CbssuTPCftc3BmcS/0n0v2jN1JSd5W3QRzc+Mk66qbYPnulva+8eqlGFR39c1MbFFg5uZhabdyVH+Gh1LrV7eZKXLX1H9m1PzqtpmAIc+Mbu7zSY5O8vtpawsyXuen7efbJvlicS8M04fiHlLG6wtxbhyTI6sb6MJYwmjSLtW/LMlRcRP3WB2XdmC+LG7NYDbuIWXM/qG6Aebm8OoGujCmMLrJaUkem3Yf4SnFvTAfp6Ttz8fGyw+YH4GUsXprknOrm2AuJvEQ0xjD6CbvS3vC+lvVjTCTb6Xtx/dVN8IoHZ/kcfFQE+NycZJ3VDfBXNy8uoEujDmMJsl5SX5c3QQz+XHafoRFcQ8pY/TO6gaYi4OqG+jC2MMowHK4ZM/Y/Gs80DsGN6xuoAvCKEAjkDIml8X76sdgXZK9q5tYNGEU4BoCKWPygeoGmIsDqxtYNGEU4No81MRYfDht4XSG7YDqBhZNGAW4Lg81MQY/SvLd6iaYmZlRgIlyyZ4x8Dam4RNGASbMJXuG7j+rG2Bm+1U3sGjCKMD2uWTPkH2zugFmtq66gUUTRgF2zAwpQ/Xt6gaY2W7VDSyaMAqwPGZIGaJTqhtgZsIoAFc7PskxEUgZjkvilcpDJ4wCcC2fjkv2DMtZ1Q0wE/eMAnAdH0ryoJghZRh8TofNzCgAW/XpuGTPMFxS3QAzEUYB2CaX7BmCy6obYCa7VjewaMIowGxcsqfvvJ+eXhNGAWbnkj3AKgmjAPMhkAKsgjAKMD8CKcAKCaMA8yWQAqyAMAowfwIpwDIJowCLIZACLIMwCrA4AinADgijAIslkAJshzAKsHgCKcA2CKMA3RBIAbZCGAXojkAKsAVhFKBbAinAZoRRgO4JpAAbCaMANQRSgAijAJUEUmDyhFGAWgIpMGnCKEA9gRSYLGEUoB8EUmCShFGA/hBIgckRRgH6RSAFJkUYBegfgRSYDGEUoJ8EUmAShFGA/hJIgdETRgH6TSAFRk0YBeg/gRQYLWEUYBgEUmCUhFGA4RBIgdERRgGGRSAFRkUYBRgegRQYDWEUYJgEUmAUhFGA4RJIgcETRgGGTSAFBk0YBRg+gRQYLGEUYBwEUmCQhFGA8RBIgcERRgHGRSAFBkUYBRgfgRQYDGEUYJwEUmAQhFGA8RJIgd4TRgHGTSAFek0YBRg/gRToLWEUYBoEUqCXhFGA6RBIgd4RRgGmRSAFekUYBZgegRToDWEUYJoEUqAXhFGA6RJIgXLCKMC0CaRAKWEUAIEUKCOMApAIpEARYRSATQRSoHPCKACbE0iBTgmjAGxJIAU6I4wCsDUCKdCJnasbAKC3Pp3kB9VNAONmZhSA7fl+dQPAuAmjAACUEUYBACgjjAIAUEYYBQCgjDAKAEAZYRQAgDLCKAAAZYRRAADKCKMAAJQRRgEAKCOMAgBQRhgFAKCMMAoAQBlhFACAMsIoAABlhFEAAMoIowAAlBFGAQAoI4wCAFBGGAUAoIwwCgBAGWEUAIAywigAAGWEUQAAygijAACUEUYBACgjjAIAUEYYBQCgjDAKAEAZYRQAgDLCKAAAZYRRAADKCKMAAJQRRgEAKCOMAgBQRhgFAKCMMAoAQBlhFACAMsIoAABlhFEAAMoIowAAlBFGAQAoI4wCAFBGGAUAoIwwCgBAGWEUAIAywigAAGWEUQAAygijAACUEUYBACgjjAIAUEYYBQCgjDAKAEAZYRQAgDLCKAAAZYRRAADKCKMAAJQRRgEAKCOMAgBQRhgFAKCMMAoAQBlhFACAMsIoAABlhFEAAMoIowAAlBFGAQAoI4wCAFBGGAUAoIwwCgBAGWEUAIAywigAAGWEUQAAygijAACUEUYBACgjjAIAUEYYBQCgjDAKAEAZYRQAgDLCKAAAZYRRAADKCKMAAJQRRgEAKCOMAgBQRhgFAKCMMAoAQBlhFACAMsIoAABlhFEAAMoIowAAlBFGAQAoI4wCAFBGGAUAoIwwCgBAGWEUAIAywigAAGWEUQAAygijAACUEUYBACgjjAIAUEYYBQCgjDAKAEAZYRQAgDLCKAAAZYRRAADKCKMAAJQRRgEAKCOMAgBQRhgFAKCMMAoAQBlhFACAMsIoAABlhFEAAMoIowAAlBFGAQAoI4wCAFBGGAUAoIwwCgBAGWEUAIAywigAAGWEUQAAygijAACUEUYBACgjjAIAUEYYBQCgjDAKAEAZYRQAgDLCKAAAZYRRAADKCKMAAJQRRgEAKCOMAgBQRhgFAKCMMAoAQBlhFACAMsIoAABlhFEAAMoIowAAlBFGAQAoI4wCAFBGGAUAoIwwCgBAGWEUAIAywigAAGWEUQAAygijAACUEUYBACgjjAIAUEYYBQCgjDAKAEAZYRQAgDLCKAAAZYRRAADKCKMAAJQRRgEAKCOMAgBQRhgFAKCMMAoAQBlhFACAMsIoAABlhFEAAMoIowAAlBFGAQAoI4wCAFBGGAUAoIwwCgBAGWEUAIAywigAAGWEUQAAygijAACUEUYBACgjjAIAUEYYBQCgjDAKAEAZYRQAgDLCKAAAZYRRAADKCKMAAJQRRgEAKCOMAgBQRhgFAKCMMAoAQBlhFACAMsIoAABlhFEAAMoIowAAlBFGAQAoI4wCAFBGGAUAoIwwCgBAGWEUAIAywigAAGWEUQAAygijAACUEUYBACgjjAIAUEYYBQCgjDAKAEAZYRQAgDLCKAAAZYRRAADKCKMAAJQRRgEAKCOMAgBQRhgFAKCMMAoAQBlhFACAMsIoAABlhFEAAMoIowAAlBFGAQAoI4wCAFBGGAUAoIwwCgBAGWEUAIAywigAAGWEUQAAygijAACUEUYBACgjjAIAUEYYBQCgjDAKAEAZYRQAgDLCKAAAZYRRAADKCKMAAJQRRgEAKCOMAgBQRhgFAKCMMAoAQBlhFACAMsIoAABlhFEAAMoIowAAlBFGAQAoI4wCAFBGGAUAoIwwCgBAGWEUAIAywigAAGWEUQAAygijAACUEUYBACgjjAIAUEYYBQCgjDAKAEAZYRQAgDLCKAAAZYRRAADKCKMAAJQRRgEAKCOMAgBQRhgFAKCMMAoAQBlhFACAMsIoAABlhFEAAMoIowAAlBFGAQAoI4wCAFBGGAUAoIwwCgBAGWEUAIAywigAAGWEUQAAygijAACUEUYBACgjjAIAUEYYBQCgjDAKAEAZYRQAgDLCKAAAZYRRAADKCKMAAJQRRgEAKCOMAgBQRhgFAKCMMAoAQBlhFACAMsIoAABlhFEAAMoIowAAlBFGAQAoI4wCAFBGGAUAoIwwCgBAGWEUAIAywigAAGWEUQAAygijAACUEUYBACgjjAIAUEYYBQCgjDAKAEAZYRQAgDJjD6M7J9m7uglmsnfafgQARmjMYfQeSb6c5I7VjTCTOyb5UpK7VzcCMED7JLlhdRPM5IZp+5EBOSDJO5JsUKOrd2zcvwBs31KSZyb5SerP3Wr2+snG/TnmScRR2HTgnZv6D41yQAJUOTrJp1N/vlbzr08nuXXopcOSfCL1HxLVXX0sySEBYJO1Sf40ycWpP0erxdXFSZ6bZNfQG7+c5LzUfzhU93VukscFgLslOSH152XVXX0zyV1CqX2TvDP1HwZVX8elfR4ApmbXJC9LclXqz8Wq+7oiyYuS7BI6d98kp6b+Q6D6U6ckuXcApuOWSb6Q+vOvqq/PJ7lF6MRS2n0Sl6d+x6v+1WVJnpNkTQDG7XHxwK66dp2T5NFhofZO8t7U72zV/3pXkr0CMD7rkrwu9edZ1d96dZLdwtwdneQ7qd/Bajj17Vj+AhiXmyX5aurPr6r/9V9Jbhrm5peSnJ/6HauGVz9L8osBGL4Hpl2GrT6vquHU2UkeEGaylPaEmCcE1Sx1VdrnyH2kwFA9K+2p6erzqRpeXZ72+WEVdop7YtR861VpnyuAodglyf9L/flTDb/+NsnOYdnWJvmX1O84Nb56R7yxAhiGPdPeNFd93lTjqQ8n2SM91LdLl9dL8r4k96puhNE6PsmxafeTAvTRAUk+lOSO1Y0wOl9O8rAkZ1U3srk+hVEHH13p5cEIkOQmaTOiR1Q3wmidkOTBSX5Q3cgmfQmjDj661ruDEZi8w9PGwkOqG2H0TknyoLRlEMv1IYwelORf015rBl06Mcl9kvy4uhFg8m6d5KNJDq5uhMn4YdqkzLeqG6kOozdI8qlYnJw6X0tyv7T1+wAq3CptLNy/uA+m58y0SZkTKptYKvze+yX5ZARRat0m7XO4b3UjwCQJolQ6IO3q9FGVTVTNjF4/LQDcvuj7w5a+kPaGk/OrGwEm42ZpK3zcqLoRJu+HSe6d5OSKb14xM7pnkg9EEKVf7poer8EGjM6hSdZHEKUfbpz28FzJPctdh9Gdkrw1yT06/r6wHD+X5E2pvX0FGL/9krw/npqnX26e5INpV6871fXrEV+c5Mkdf09YiaOS7Jbk49WNAKO0Lm0G6g7VjcBWHJj24qG3Jrmiq2/aZRj9nSR/1uH3g9W6Z9pyT1+qbgQYlaW01xI/oLoR2I6bpD1Yd1zaa0QXrqswekxc/mRYHpLkcym6mRsYpRcmeXp1E7AMR6VltvVdfLMunqa/ddqgvncH3wvm6Sdp9zefVN0IMHhPS/Lq6iZgBTYkeVKStyz6Gy06jF4vyb+leP0qmMHXk/x8kp9VNwIM1l3S1nJcV90IrNBFafeQfmWR32TRl81fG0GUYTs6yauqmwAG60ZJ3hNBlGHaPcl7017dvjCLDKPPTPLoBX596Mrj0x7AA1iJXZO8KwseyGHBbpT2Od5lUd9gUQ8w3S3J2xb49aFrD0h7WcMZ1Y0Ag/HCJI+rbgLm4MZpE5ifXMQXX8Q9o3un3Vtw8wV8baj0nSR3jFeGAjv2iLTLm1Wv3YZ5uyrJQ9PWyZ2rRVymf3UEUcbpFkleUd0E0HsHJ3ldBFHGZSnJm9MWxp/7F56nX4lLEozbr8ZnHNi2NUlek2T/6kZgAQ5Im3Sc6y9a87yn84Zp99R5YpCxu1+SN6QteQGwuT+MBx4Zt8PT1uH+/Ly+4DyT7fvS7pGBKTguyWOrmwB65agk/5FkbXUjsGCXJrl9khPm8cXmdZn+0RFEmZbHJHlUdRNAb6xJ8vcRRJmGtWmf97lMas7ji1w/yTezgBtaoedOT3vd7bnVjQDlvO6TKXpqktfP+kXmcc/oK5Lcew5fB4ZmryT7pt2iAkzXwWlvWdqtuhHo2L2SvDHJhbN8kVkv098zyVNm/BowZL+e9u56YLr+T5LrVTcBBfZN+/zPZJbL9EtJvpi2CDhM2ZeS3DXJhupGgM49OMlHqpuAYg9K8vHV/uVZwuiTkrxphr/P9l2c5MSNdcLGOjvt7T8XpU2Jn5cWgNYk2SfJHkl2T7t8fIO0JzuPTHLExnIJaXGemOQt1U0Ando5yX8luVV1IyNlHByOr6c9XX/lav7yasPourQPx01W+fe5rlPT3vn6iSSfTXJK2qu35mUpyaFpt1Y8IMn9Y//N0ylpJ7xLqhsBOvOMtCeKmQ/j4LA9Pe2FD515TtpvImr1dVnagy/PSHLLlW3+uTk8yW+mvazg8q30qFZWf7yyzQ8M2F5pK2pUn3eGXMbBcdWP0mamO3FQ2hR59Q89xLoqycfSXinZt5vdr5fW18fS+qzeVkOs82OJM5iKv0z9OWeIZRwcd/35irf6Kr2yox9oTHV+khenXcYdgqOSvCTJBanfdkOrl61iewPDcqO0+xWrzzdDKuPgNOr8tEnLhTo0bVq9+ocdSv00yQvTbqIeov3Tfvv/Weq35VDq0rgHCcbudak/1wyljIPTq1etakuvwMt78EMOoc5N8ry0t1ONwb5JXpBrnlpU26+XrG4zAwNweJIrUn+e6XsZB6dbVyS5+eo2844dlPakcPUP2ee6Mu0y7VgOvi1dP+3nuzL127rPdWHab9PA+Lwh9eeYPpdxUG3IAp+q/4se/HB9rq+lLRcxBfdKW1Osepv3uf5s1VsX6KvD4la17ZVxUG2qy5Icsuqtuw17JTmnBz9cH+uyJM/P9BbS3S0tcFkKY+t1djpc4gLoxEtTf27pYxkH6/dBH+uvV79pt+5ZPfih+ljfideh3inJd1O/L/pY/2OG7Qr0y4FpbwSqPq/0rYyDxsFt1VxvWds1yQ978EP1rT6QZL8ZtuuY7J/kw6nfJ32rU5PsMsN2BfrjBak/p/StjIPXMA5uvf50lo26ucf04IfpU12e5NlZ/atUx2opyZ/EU6Zb1qNm2ahAL+wRt6ptXsbBrTMOXrfOTnuF/Mw+3oMfpi91XpL7zbY5R+/+aevKVe+rvtSHZ9ucQA88LfXnkr6UcXDHjIPXrifPtDWT3CJeibWpfpjk6Nk252TcKckZqd9nfagr014WAQzXv6X+XNKHMg4un3Hwmvr0jNsyL+zBD9GHOiFtSQ+W76ZJTkz9vutDvWDGbQnUuW3qzyF9KOPgyhkHr6mjVrsRd0rygx78ANX19XTwntWROjjJN1K/D6vr+2n3EgHD89epP4dUl3Fw9YyDrf5ytRvwF3rQfHWdEG/SmdUB8ZvhhiTHzLohgc6tTXsAo/r8YRwcNuNg8uOscnWZd/ag+co6M8kRq9lwXMdRcUJ/+8xbEejao1N/7jAOjoNxMHnkSjfa7kku6kHjVfWzJHde6UZju+6W5ILU79uqOj/TezsJDN37Un/uMA6Ox9THwXetdIM9qgdNV9XlSR600g3Gsjws015/7djZNyHQkb2TXJL684ZxcFymPA5elBW+JvvNPWi6qv5oJRuKFXtO6vdxVb1h9s0HdOQJqT9nGAfHacrj4OOXu5F2TVvUtrrhinpXvFFi0dYkeU/q93VFnZNk59k3IdCB41J/zjAOjtOUx8FlPz/x4B40W1EnJ7n+cjcSM9k3bbmj6n1eUfefffMBC7Z7kgtTf74wDo7XVMfBrT4/sbW1D6d4X9sVSX4tybnVjUzET5I8Je3tRFOz4qcJgc7dPy2QTolxsFtTHQf3zDJfJ3tK6pNz1/XS5WwY5u4Vqd/3XdfJc9lywCK9NvXnCuPgNExxHHzVjjbKLXrQZNd1WtpTk3Rvn0zz3b03ncfGAxZiTdr6mtXnCePgNExxHDw9W9yXvOVl+mVNnY7M76Wtp0b3zkvy+9VNFLhvdQPANt0m03vjkHGwzhTHwQOT3Grz/2PLMHrv7nrphQ+kvWmKOm9P8onqJjp2n+oGgG2a2vFpHKxnHNzC91M/fdtVXZ7kyBVsOBbn6ExrEeDvzGezAQvwT6k/RxgHp2dq4+Bbt7UhbtqD5rqs121rQ1Biai9aOGQ+mw2Yo6ndL2oc7JcpjYOnb2sjPLkHzXVVVyS5+bY2BCWOSlviovqz0VU9cT6bDZijo1J/bjAOTtfUxsHDN/3gm98zes9VbrwheleS71Y3wbV8K8l7q5vo0JSONxiKe1U30CHjYP9MdhzcPIzeoaCRChuS/EV1E2zVC6sb6NBUjjcYkqmEUeNgf01pHLzO8bZTkotSP2XbRX1o1ZuNLnw09Z+RLuqCbP0NaECdr6X+3GAcZCrj4H9s+oE3DYa3TLJuli03IK+uboDtmsr+2SPJzaqbAK62NtN5snwq59mhmsr+uVWSXZJrwujRdb106uwk769ugu16X6bzbuTbVDcAXO2IJDtXN9EB42D/TWUc3DVtMnRyYfTtSS6rboLtuiRtnb8pmMpxB0MwlePRONh/UxoHb5NML4y+sboBlmUq+2kqxx0MwVSOx6mcX4duKvvp6OSaMHrrwka6clKSL1U3wbJ8Psn3qpvowBSOOxiKKRyPxsHhmNQ4uJT2JP0tanvpxIerG2DZNmQa++uWaW98AepNYWZ0CufVsZjKOHj1zOgBmcZN25+oboAV+Xh1Ax3YNcn+1U0A2TnJYdVNdMA4OCxTGAdvmmSnpSQ3qu6kA5cnWV/dBCvyybTXoo3dFI4/6LuDMv51f42DwzOFcXDnJDecShj9YpLzq5tgRX6aadzbNIXjD/puCsehcXB4JjMOLqX9Rjh2fhscpinstykcf9B3UzgOp3A+HaMp7LeDpjQzyvBMYb9N4fiDvrtxdQMdmML5dIymsN9uPJUwemJ1A6zKFPbbFI4/6LuDqxvowBTOp2M0hf128BQu01+RaazVNUbfzfhv3h778QdDMPYwahwcrimMgwcvJdmruosFOzlefTZUlyQ5pbqJBRv78QdDcGB1AwtmHByuKYyDBy4lWVfdxYJ9q7oBZjL2/bd7dQNA9qxuYMHGfh4du7Hvv72WkuxW3cWCfbe6AWbyneoGFmzsxx8MwdgnZYyDwzb6cXAKM6M/qW6Amfy4uoEFMzMK9YyD9Nnox8EphFGL/A7b2dUNLNjYjz8YgrEfh8bBYRv9ODiFy/QXVDfATM6tbmDBxn78wRCM/Tg0Dg7b6MfBpYz/MuHPqhtgJpdUN7BgYz/+YAjGPjNqHBy20Y+DS0l2qe5iwfxGOGyXVjewYGM//mAIzIzSZ2MfB3dbyvjXHhv7zzd2Y1/s1+cT6u1c3cCCOc8M29jHwZ2nEEYtKj5sa6sbWLCxH38wBJdXN7BgxsFhG/04KIzSd2M/CMd++QWGYOzHoXFw2MY+Dk4ijI79zRpjN/b9N/bjD4Zg7Mfh2M+jYzf2/XfpFMLo3tUNMJMbVDewYGOfkYEhMA7SZ2MfBy9bSnJhdRcLNvbfKMZuv+oGFmzsxx8MwdjDqHFw2MY+Dl66lOSc6i4W7EbVDTCTQ6obWLCxH38wBGNf+sg4OGxjHwcvWMr4XzN1VHUDzGTs+2/sxx8MwdiPw7GfR8du7Pvv7CnMjB5Z3QCrtibj339jP/5gCMYeRsd+Hh2zKYyDZ09hZnSfJDesboJVOSjjX5Jk7McfDMHYfyk0Dg7XFMbBc5aS/KS6iw4cXt0AqzKF/TaF4w/6buxhNJnG+XSMprDfzllKclp1Fx04uroBVuXW1Q10YArHH/TdFMKocXCYpjAOnrOU5OTqLjpwv+oGWJX7VzfQgSkcf9B3P6huoAPGwWGawjj4g6Uk36/uogP3T7JU3QQrslOmcRAKo1Dv+9UNdMA4ODyTGQeXkpyR5JLqThZsvyS3q26CFblD2k33Y3ZBkrOqmwAmEUaNg8MzhXEwSb6/lGRDklOrO+nAA6obYEUeWN1AB06pbgBI0n4pHPvC94lxcGimMA7+NMm5m6bsp3Cp0P0ywzKF/fX96gaAq01hUmYK59UxmcL+OiW55v6RbxQ20pUHJLl+dRMsyw2S3Le6iQ58vboB4Grfq26gA8bB4ZjKOPjd5Jow+l+FjXRlbZJfqW6CZXlCkl2rm+jAV6sbAK42hePRODgcUxkHv5ZcE0a/VthIl55U3QDLMpX9NJXjDoZgKsfjVM6vQzeV/XSt425tksvSHmYae439Ha9Dd5vUf0a6qEuT7DKnbQbM7tapPy8YB0mmMw5uSHJEcs3M6KVJvj3jxhuKqfy2MVRPqG6gIycmuby6CeBqJ2b8yxxuYhzst6mMgxcl+U5y7QVwv1LTS+eekmS36ibYqt2TPLm6iY5M5XiDobgiLZBOgXGwv6Y0Dp6Q5Mrk2mH0szW9dO6gJL9Z3QRb9dtJbljdREc+U90AcB1fqG6gI8bB/prSOLjV421K9yicnmTdarYcC7N72tvAqj8bXdVR89lswBw9OfXnBuPgdE1tHHziph9885nRb6SthD8FByZ5anUTXMtvZDq/Df4k7fIE0C+fq26gQ8bB/pnSOJhs54r8R1OflLuqk+Np5r5Ym+QHqf9MdFUfmM9mA+ZsTdqrQavPEcbB6ZnaOHjG5j/85jOjyXTuG02Sw5I8s7oJkiR/mOTG1U10aErHGQzJhiT/Vt1Ehw6LcbAvpjYObvcqxD1Sn5a7rPMzrZ3fR4cmuTD1n4Uu685z2XLAIvxx6s8RxsFpmeI4+Afb2yBLSX7cgya7rHdvb4OwcB9O/Wegy/pR2qVAoJ+OTv15wjg4LVMbBzdk42L32/OWHjTZdR27o43CQjwq9fu+63rDPDYcsFCnpP5cYRychimOg9/dciNsec9o0h5impqXJNmjuomJ2TPJi6ubKDDF4wuG5uPVDRQwDnZvquPgx5bzHx2Y5KrUJ+eu6w3L2TjMzZtTv8+7riuT3GAeGw9YqMem/nxhHBy/KY6DG5L84nI30Gd70GxFPWW5G4iZPD31+7qiQaPVKgAADiZJREFUPjWHbQcs3vWTXJ76c4ZxcLymOg5emmSv5W6k3+1BwxV1SZI7LncjsSp3StvO1fu6orx+D4bjQ6k/ZxgHx2nK4+B7V7KhbpxpXqrfkOSbcd/MouyV5MTU7+OKuiLtFhhgGKY6c2UcXKwpj4Mb0l65uyLH96Dpqvpk2tsQmJ/d0i5TV+/bqvrEzFsQ6NI+aZcUq88dxsHxmPo4eHFWcIl+k6leqt9U70qy00o3Glu1c5L3pH6fVpZL9DA8H0z9ucM4OA7Gwfbzr9hBme4N3JvqJavZcFzHy1K/Lyvr0iQHzLwVga49LfXnj+oyDs7H1MfBDUl+bbUb7909aL66nr3ajUeS5E9Svw+r67j/v717j7WzKvM4/u1BLC0OlopiEOhwVQQhxgxFQJCbAoq3GSXe4n1GMyokGvFGdIxGjQ46o1EJRpSAFwSMlxmJoNhKI3gJoC1VREoVuRVolRY8p+Uwfzz7TO89Z7+X/ax37+8n+aUJ5Oy93vXuvdba77vetWrXoqQMuwMPkd+GZMd+sB77QVgL7Fa1Ak8r4ABKyCdwC8d+zcJfglM5pWZdSspzIfltSAmxH+yf/eDGXFCnIseA2ws4iBLyVWLOh6a3M3AR+eeshNyKDbjUZceS346Ukq9iPzhT9oOb56h61QkfLuAgSsl3gTm1anP4zSHWEcs+V6Xk3HrVKakAy8hvS0qJ/eD07Ac3z431qjMswAeZNs2VxJIf2tp8Yk/n7HNUSiaAfWrVqKQSvIf89qSk2A9un/3g1nlXrRrdxDcKOJiSchvwT7VqdPgsxCkdW+biOhUqqRhPxAeZtoz94NbsB7fOOmCPGnW6mcMZ3R2Ztpf1xBSGserVOhTGiHrYQP45KSmTwGHVq1VSYT5PfrtSWuwHg/3g9vPZ6tW6bdcUcFAl5jJG93bFfGJR5OxzUGJ+VKNeJZXnYOAR8tuWEmM/mH8OSswG4IDqVbttpxZwYKXmAeAsRmenip2I411Nft2XmhMr166kUl1GfttSauwHzZb5RuXa3YFZwE0FHFzJWQw8o2oFd8QRwLXk13XJ+RUu5yQNI5d5mj72g2YqR1at4Om8tICDKz3rie3TGpuwW4gnEov3urLC9HlBxTqWVL5F5Lcxpcd+0FxdsY5n7LoCDrILGQfOp/tL+xxALNw7Tn6ddiGLqlWzpI44mvx2piuxHxzNTALPqlTTfXDuaH+ZID7EB1Wp7EQHE+WeIL8Ou5STqlS2pE65kvy2pkuxHxytfL9KZVdx/YAOaJgyDlwOnEG526ntDLwIuAJ/AVbJkv6rXFIHHUN+e9PF2A+ORhb2XesVnTCgAxrW3A38J+WsQ3k4Mb/nHvLrpst5Tr8VL6mzvDpaL/aDw5kf9FvxUO+J328Br6jx9wr3EvMMrwauAlYM4D33A04BTgaOB540gPccdl8HXp1dCEkD83RihZlSr/B1if3gcFhPDOp/1+8f1hmMHggsBWbXeA1t7lFgGXG793fAcuD3wMre/+vXGLAAeCrwtF6OBQ5torD6f38nOqZBNKCSynEB8ObsQgwZ+8Hu+hLwtip/WHctxE8B7675Gprew8SX8S5igd0HiP1et7QrsRvEfODJxJdvzoDKOMo+Drw/uxCSBm5P4BZgt+yCjAD7wbKtIR74WlXlj+sORh9PfBG9vK1RdRfR2D2YXRBJKc4BPpFdCCnZu4g5t5U0sUvMq4GLG3gdqYvOBC7NLoSkNLOBm4H9swsiJbmF2HVrouoLjDVQiEuA7zTwOlLXXIYDUWnUjQNvpNp8RqnrJoHXUWMgCs0MRgH+nZjDIY2K1cA7sgshqQiLgC9nF0JK8CViZ85admqgIABric75jIZeTyrd24GfZRdCUjEWAa/Fh5k0Ov4M/DNxd6CWpq6MQvwqXNzg60mluga4MLsQkoryN+IhDmlUnE187mtr4gGmTS0AbgTmNfy6UilWE4v63pFdEElFuhx4WXYhpJZdSjzA24imB6MALyX2dJWG0UuA72YXQlKx5hE7M+2bXRCpJSuBI4C/NvWCTd6mn/Id4CstvK6U7XwciErasTXE3NHJ7IJILXgEeA0NDkShuQeYtrSIuHy7e0uvLw3arcC/UHP5CkkjYSWxGcyR2QWRGvbfxDa4jWrjNv2UZwHXAru0+B7SIDwMPJu49SZJMzEX+BVwSHZBpIb8lviB9femX7iN2/RTfk0sBCx13RtwICqpPw8BpwP3ZxdEasB9xPKdjQ9Eob3b9FOWAnvgrQp112eosd+upJG2BrgBeBXtXvyR2vQI8XD6DW29QduDUYCrgecSyz5JXbIYH0SQVM9txFahJ2QXRKrog8BFbb5Bm3NGN/UUYruovQf0flJdfyLmid6ZXRBJnTcG/AA4LbsgUp++Tyxp2OpFmUENRiEmcS/BJ+xVvlXEQPSP2QWRNDQeR9xteWZ2QaQZug44kXiIt1WDnMOynBhd197DVGrROLHXrgNRSU1aC7yAuOsilW4lMU+09YEoDH5C9WLg9cT8Gak0jwKvA36WXRBJQ+ku4lb9muyCSDuwmvic3j2oNxzEA0xbWtr797kJ7y3tyLnAF7MLIWmorSL6wTPxCXuVZwOxwct1g3zTjMEoxA5NOwPHJb2/tKWP9CJJbfsDsIyYEuSAVKXYALyCeNhuoLIGowA/Af4BODqxDBLAp4H3ZxdC0khZTswffTGDfZhY2pZJ4E3ANzPePHMwCnAVsBexdaiU4QLgrOxCSBpJN7Jxfp6U6Z20sOf8TGUPRgF+CBwEPCO7IBo5lwBvwUXtJeW5HpgDHJtdEI2sj/eSpoTB6CRwBTAPOCq5LBodnwXeigNRSfmuJvb8Pjm7IBo576WA5yVKGIxOuZIoz/HZBdHQ+w/gfdmFkKRNLAHuI27ZO4dUbXsUeDtxYSZdSYNRgGvwdoXa9VHgQ9mFkKRt+CXwN+B5OCBVex4FzgY+n12Q0r0NWE9UmDFNZIKYHypJpfs3Ypmd7HbTDF/WE0/Na4aOAe4l/8SZ7uceYq95SeqKk4mdmrLbTzM8WU3sNa8+HUCsxZZ9Ak13czOwP5LUPYcRe4Rnt6Om+1kBHIoqexLwU/JPpOlefgzsgSR11wJi+9Ds9tR0NzcBe6PaHgOcR/4JNd3IJPBJyntAT5KqeDzwPfLbVtO9XAHshhr1QmLOQ/bJNeXmAeB0JGn4/CvxMGZ2O2vKzwTxeVFLDiPmAWafaFNelgKHIEnD61TgfvLbW1NuVuEGCgMxF/gCcTs2+6Sb/EwCnyPWqJWkYbcf8Avy215TXn4O7IsG6iTgDvJPvsnLn4ETkKTRshNwDjBOfjts8jMOnIWbJaR5MvA/5H8QzODzPWK1BUkaVcfh8k+jnhXE2uwqwGuIeRLZHwrTfu4BXokkCWAecDH5bbMZfL5GrLaggswDzse5pMOaR4D/wi+eJG3Lc4Bl5LfVpv0sxauhxTsduI38D4tpLrcCz0eStCNziXWW15PfbpvmMwF8DB/Y7YxdgA8Aa8n/8JjqeRB4LzAbSdJMHQFcS34bbprLImJ5S3XQE4hbuxvI/yCZmWdD77zN3/qUSpJm6Azgj+S36aZ6luG6oUPjaNzjviv5MbBwm2dRktSvXYGPAA+R376bmWcd8CG8JT+UTsRbF6VmEXD89k+dJKmGBcBXcD5p6ZkALgD22fZp1DB5PrFTQfaHzsSPg5N2fLokSQ05ELgIp6+VlvXAhcD+2z91GlbHAN/GL2XGl+5bwLOnP0WSpBY8DbgEr5RmZ4L4cXDQjk+XRsGewIdx4fy2s6pXz3vO5KRIklo31f/dT34fMUq5r1fv7iSorTwOeBPewm86S4A39upXklSe3Yml9O4kv88Y5vwFOIfYqEea1oHErxb3/a2W24kvnJOwJak7xoilhC4lbiFn9yXDkPFefZ7cq1+pb7OBFwFfx0X0p8uDxB7JZwCPrVLZkqRi7EMsL3Q7+f1LF7MCOBfYu896l3ZoLnAmcAWxBlj2B72ErAMuB16O66FJ0jAaIx74/QzwJ/L7nZKzEjiPeEB3VpXKlvoxBziV2CnoFvK/AIPM74lG6XnE1quSpNEwixhonQfcSn5/VEJuAT4NHIUD0L5ZYc06EDiF+JIuBA7OLU5jpr5o1xMPdl1FbC8nSdLBwGm9HM9oXKB4mNio5X+BHxKDclXkYLRdTyB+JS0EngkcDuybWqKZWQn8FrgBuK6XB1JLJEnqgrnAccQt/WOBI3v/revWAb8gNmlZAiwmBqRqgIPRwZtHDEoPBw4F9uvlHxnsAz/jxKBzBXAbsAz4DTEIXTPAckiShtfOxMWYY4AjiH7vEGDXzEJNYy2wnOgXbyIGnzcQm+OoBQ5GyzEG7EUMTPci1nubv0l2J9bofCzxJd6FzR8WeogYYK4jluJYS1zNXN37dyp3EQPQO4HJlo9JkqQtzSL6uqcTA9P92PzCzOwBlGGcWCFgBRsvyiwHbmbjygEaEAejkiSpFLOICzJ7A3tskj17/05tnDKbbd/+n7owA3FRZhVwL7Hb0VTuYOPC/pIkSZIkSZIkSZIkSZIkSZIkSZIkSZIkSZIkSZIkSZIkSZIkSZIkSZIkSZIkSZIkSZIkSZIkSZIkSZIkSZIkSZIkSZIkSZIkSZIkSZIkSZIkSZIkSZIkSZIkSZIkSZIkSZIkSZIkSZIkSZIkSZIkSZIkSZIkSZIkSZIkSZIkSZIkSZIkSZIkSZIkSZIkSZIkSZIkSZIkSZIkSZIkSZIkSZIkSZIkSZIkSZIkSZIkSZIkSZIkSZIkSZIkSZIkSZIkSZIkSZIkSZIkSZIkSZIkSZIkSZIkSZIkSZIkSZKGxP8BNGamMCwpNScAAAAASUVORK5CYII=;labelPosition=right;align=left;fontColor=#007FFF;" parent="1" vertex="1">
                    <mxGeometry x="410" y="380" width="45" height="60" as="geometry"/>
                </mxCell>
                <mxCell id="20" style="edgeStyle=orthogonalEdgeStyle;rounded=0;orthogonalLoop=1;jettySize=auto;html=1;entryX=0.537;entryY=1.007;entryDx=0;entryDy=0;entryPerimeter=0;fillColor=#1ba1e2;strokeColor=#006EAF;" edge="1" parent="1" source="8" target="4">
                    <mxGeometry relative="1" as="geometry"/>
                </mxCell>
                <mxCell id="8" value="review &amp; &#10;merge PR" style="shape=image;verticalLabelPosition=bottom;labelBackgroundColor=none;verticalAlign=top;aspect=fixed;imageAspect=0;image=data:image/png,iVBORw0KGgoAAAANSUhEUgAAAqMAAAOECAYAAACVQThSAAAABmJLR0QA/wD/AP+gvaeTAAAgAElEQVR4nOzdd5heZZnH8e+kJ3QSUOlFCdLbUqQXFZUiKEVBsKydFV0LFlSwLa6ugq66smIBUVdYVEBFRROaAZUuHUKVGhIIgRRS9o97ZhOSyWTmLec+5fu5rvuaZJjM++M58857v88553lAkiRJkiRJkiRJkiRJkiRJkiRJkiRJkiRJkiRJkiRJkiRJkiRJkiRJkiRJkiRJkiRJkiRJkiRJkiRJkiRJkiRJkiRJkiRJkiRJkiRJkiRJkiRJkiRJkiRJkiRJkiRJkiRJkiRJkiRJkiRJkiRJkiRJkiRJkiRJkiRJkiRJkiRJkiRJkiRJkiRJkiRJkiRJkiRJkiRJkiRJkiRJkiRJkiRJkiRJkiRJkiRJkiRJkiRJkiRJkiRJkiRJkiRJkiRJkiRJkiRJkiRJkiRJkiRJkiRJkiRJkiRJkiRJkiRJal9PdgC9QA/wEmA9YEJvrQWs3ftx5d6vGw2M6+ffPwfM7f3zLODx3pq2RD0EPNyd+JIkSUNjM5pjQ2CL3tq4tzYBNgLGFPD4c4B7e2tq78dbe+uBAh5fkiQJsBnttuHA1sAewHbAVsDLgVUzQ63ATKIp/TtwI3BF758XZIaSJEn1ZDPaWaOBVwB7ArsDuwGrpCbqjJnAFOAqojn9MzAvNZEkSaoFm9H27QgcABwM7AKMyI1TiDnAlcClvXVtbhxJkqRm2QL4HHAzsMjiJuBU4hIESZIkdcEOwBnAfeQ3f2Wue4HTsDGVJElq20rA24hrJbObvKrVQuL60rfS/zJUkiRJ6kcPcQ3oz4HZ5Dd1dajZveN5AF6nLEmS1K8RwNHA38hv3upcfwWOohk3ekmSJK3QmsApwKPkN2pNqkd7x33NFR0gSZKkOloD+Dwwg/zGrMn1JHEn/uoDHy5JkqR6eBFxV/ws8hsxa3HN6j0uL1r+oZMkSaqulYFPAdPJb7ys5dc04BPESgaSJEmVNxw4kTgdnN1oWUNrSk/sPX6SJEmVtBdwPfmNldV6XQfsufSBlSRJKrO1gR8AC8hvpqz2awFwFjABSZKkEus7Jf80+Q2U1fl6Ck/dS5KkktoJuJb8hsnqfl0L7IAkSVIJDAdOBuaQ3yRZxdVs4JM4SypJkhJNJLaXzG6MrLz6C7AZkiRJBTsReI78ZsjKr+eInwdJkqSuWxk4l/wGyCpfnY2L5UuSpC7aCriL/KbHKm/dCWyBJElSh70BeIb8Zscqf80EDkeSJKkDeoi7pl3A3hpKzQdOIn5+JEmSWjIOuID8xsaqbp0PjEWSJGmIXgRcQ34zY1W/phBbxEqSJA3Ky4Gp5DcxVn3qHmBzJElSqZTxerp/An4NrJUdRLXzGPBa4LrsIJIkKQzLDrCUVwKTsRFVd7wIuBw4IDuIJEkqn9fj/vJWMTUHOBRJkqReRwDzyG9SrObUXOCNSJKkxns9NqJWTs3DGVJJkhrtSGJx8uymxGpuzQMOQZIkNc5BxKnS7GbEsuYSd9lLkqSCZS3ttB9wMe6Mo/KYTTSkk5NzSJLUKBnN6NbAFcBqCY8tDWQGsAdwa3YQSZKaouhmdENia8aXFPy40mA9DOwKPJgdRJKkJihy0fs1gN9gI6pyWwf4LbB6dhBJkpqgqGZ0NPALYIuCHk9qx5bABcCo7CCSJNXd8IIe52vAUQU9ltQJGwMrAb/PDiJJUp0V0Yy+A/hiAY8jddpuwP3ADdlBJEmqq27fwLQTcef8mC4/jtQtc4Ddgeuyg0iSVEfdbEYnANcCG3TxMaQi3Ee8sXoyOYckSbXTrRuYeoCzsBFVPWwE/Fd2CEmS6qhb14x+EDixS99byrAF8ATw1+wgkiTVSTdO028LXEMs5yTVyRxgF+Cm7CCSJNVFp5vRscDfcD1R1dctxPWjc7KDSJJUB50+TX8acGiHv6dUJmsDI4FLs4NIklQHnZwZ3RO4rMPfUyqjhcBewFXZQSRJqrpONY5jgBuBzTr0/aSyux3YDpibHUSSpCrr1Gn6TwOHd+h7SVUwAZgHXJ4dRJKkKuvEzOiWxO40ozrwvaQqmQtsD9yWHUSSpKrqxKL3/4mNqJppNHBGdghJkqqs3Wb0GGCfDuSQquqVwJHZISRJqqp2TtOPJU5PbtihLFq+Z4E7gOnATGB27+eeAhYRx3F1YCXiuKwKrAlM7P2cumsqcbmKa49KkjREI9r4tx/DRrTTFhKrEkwhGv07eutBoulsxQZEUzoReDmwK3EXeCcu0VDYBPhX4EvZQSRJqppWZ0ZfBtyMW362ayFwPbGA+qVEE/psAY87DngFcEBvbY/NabtmEzuP3ZecQ5KkRvgRMVNntVZ3Ap8BNh3qwHfJxsTyXLeTPzZVru8NdeAlSdLQTQTmk//CX7WaBnyTOE1eZjsTd4g/Tv6YVa2eB1469CGXJElDcR75L/pVqruA46je8lcjidx3kj+GVaqftDLYkiRpcLYjrnPMfsGvQt1ONHMjWxrp8hgGHEHcUJU9plWoBcA2LY20JElaofPJf7Eve00HTqB6M6ErMhJ4D/Ak+WNc9vppi2MsSZIGsA35L/JlrvnEtZartzrAFbE68f/pdcPLr4XEMlqSJKmDziL/Rb6s9WdieaQm2Q64ivyxL2t9t/WhlSRJS1ubWEcx+wW+bLUA+BztbR5QZcOJJaqcJV22ngXGtz60kiRpSV8g/8W9bDWVWAZJsBNwN/nHpGx1ShtjKkmSeo3FNSeXrkuI2WItNgG4mPxjU6Z6FBjTzqBKkiQ4nvwX9TLV52l9G9W66yFO22cfozLVsW2NqCRJYgr5L+hlqOeJdUO1YscC88g/ZmWoK9ocS0mSGm1b8l/My1CzgUPaHMumOQh4jvxjV4baos2xlCSptoat4L87Exh3RR8GXJgdpGIuJhr4WdlBSsDnkSRJLRiDu+3MBvZudyAbbheiIc0+lpn1BDC63YGUJKlpDiP/RTyzFgBHtz2KAngjrkV6UNujKElSw5xH/gt4Zr2z/SHUEo4ltsnMPq5Z9ZP2h1CSpOZYiWafWv1i+0OofpxK/rHNqqdxzVFJkgbtTeS/eGfVuR0YPy3fj8k/xln1xg6MnyRJjfBL8l+4M+oOYJUOjJ+Wb2XgdvKPdUad14HxkySp9sbRzPUh5wG7dWD8tGK7AHPJP+ZF1yw8VS9J0godTP6LdkZ9oBODp0E7gfxjnlEHdmLwJEmqs2+S/4JddF2K+80XrQf4PfnHvuj6WicGT5KkOptK/gt2kTUL2LAjI6eh2pDmrdpwR0dGTpKkmppI/ot10XVyR0ZOrTqZ/J+BomvTjoycJEk11LTr+O4GxnZk5NSqMcRxyP5ZKLLe3ZGRkySpBoYt9fe9UlLkOYHYf1555gD/kh2iYE17nkmSNGiPkj9rVFT9oUNjps64lPyfiaLqgQ6NmSRJtbIx+S/SRdY+HRk1dcq+5P9MFFnrd2bYJEmqtiVP0++elqJ4VwGTs0PoBSYRx6UpmvR8kyRpuZrajP5bdgD1q0nHpUnPN0mSBuUv5J+6LKJuxgXuy6qHOD7ZPyNF1JQOjZkkSZXWNzM6HNgqM0iBvk00AyqfRcB3skMUZGuWXc1CkqTG2pz8maIiag6wRofGTN2xJnGcsn9WiqiXdWjMJEmqrL6ZmW1SUxTnImBGdggNaDpwcXaIgmydHUCSpGx9zWhTXhTPzg6gQTknO0BBmvImUJKk5eprRptwveg04HfZITQolxAzpHW3ZXYASZKy9TWjL01NUYxfA/OyQ2hQ5hLHq+6a8LyTJGlAfc3oRpkhCjIpO4CGpAnHa+PsAJIkZesBJgBPZAcpwAbAg9khNGgbAPdnhyjAmnhTnSSpwYbRjNmZu7ERrZoHgKnZIQrQhOefJEnLNYxmnKL/U3YAtaQJx22j7ACSJGUaBqyXHaIAbr1YTU04bk14/kmStFzDiGtG6+7W7ABqSROOWxOef5IkLdcwYHx2iALckR1ALWnCcWvC80+SpOVqwszoY8DT2SHUkhnUf6WHuj//JEkaUBNmRpswu1ZndT9+dX/+SZI0oCY0o3dmB1Bb6n786v78kyRpQMOAlbNDdNkj2QHUlrofv1WyA0iSlGkYMDo7RJc9kx1Aban78RuVHUCSpEzDqP+LYd2bmbqr+/Gr+5tBSZIG1IRmdFZ2ALXFZlSSpBrzNL3Kru7Hr+7PP0mSBjQMGJkdosucGa22uh+/uj//JEka0DBgfnaILqv7ZQh1V/fjtyA7gCRJmYYBc7JDdJlL51Rb3Y/f3OwAkiRlGgbMzg7RZXVvZuqu7sev7m8GJUkakM2oyq7ux8+ZUUlSo3maXmVX9+NX9+efJEkDasLM6GrZAdSW1bMDdJkzo5KkRmvCzOhLswOoLXU/fnVfR1WSpAENo/7rOE7MDqC21P34PZ4dQJKkTMOAR7JDdNmmuLB4VY0CNskO0WU2o5KkRhsGPJwdostGAhtnh1BLNgFGZIfoMptRSVKjNaEZhfqf6q2rJhy3J7IDSJKUqQmn6QG2yw6gljThuNmMSpIarSkzo/tlB1BLmnDcmvD8kyRpuXqADYH7knN02zxgTeDZ7CAatJWAGdT/5rP1gYeyQ0iSlKXvNP2i7CBdNgrYLTuEhmQP6t+Izgb+kR1CkqRMw4hZwybMzOydHUBD0oTjNZX6vxGUJGlAw3o//j01RTFemR1AQ9KE43VXdgBJkrL1NaM3paYoxi7A5tkhNChbATtlhyiAzagkqfH6mtFbU1MU583ZATQoR2cHKMid2QEkSSqL7Ylr1+peDwHDOzRm6o7hxHHK/lkporbv0JhJklR5Y4D55L84F1H7d2jM1B0HkP8zUkTNpv6rBUiStEJ9p+nnEHf2NsFbsgNoQMdmByjILcDz2SEkSco2bIk/35iWolhvAtbLDqF+rUccnya4NjuAJEllsGQzellaimKNAj6eHUL9+gRxfJrgr9kBJEkqm+3Iv46uqHoWWLszw6YOWZs4Ltk/G0WVNy9JksSyp+mfzApSsHHAR7JD6AU+ShyXJpgG3JAdQpKkMrqQ/BmjouopYHxnhk1tGg88Tf7PRFF1QWeGTZKk6hu21N8nZ4RIshrwlewQAuI4rJodokCXZgeQJKmsdiR/1qjIWgjs3ZGRU6v2Jo5D9s9CkeW2tJIkLccImnW6dBHwN9yVKcsw4q7y7J+BIusRoKcTgydJUh0sfZp+PvDbjCCJdgTenR2iod4F7JQdomCXEk2pJElajjeRP3tUdM0ANurA2GnwNgCmk3/si643dGLwJEmqs5WJfbOzX7SLrhuBsR0YP63YaJp3en4RMAt/xiRJeoGlT9NDvGD+qeggJbAN8O/ZIRriyzTv9DzAJcQbPUmStALvIn8WKas8jdpdh5N/jLPqmA6MnyRJjbAOzVtup6+eBDZpfwjVj42AJ8g/xhk1D1ij7RGUJKlBppD/Ap5Vd+He9Z22FnAH+cc2qy5qfwglSWqWd5L/Ap5ZN+NMVqesDtxE/jHNrEPaHkVJkhpmZWAm+S/imTUFGNfuQDbcGGAS+ccysx4mNpSQJElL6e9u+j6zgP8tKkhJ7Qr8CBiZHaSiRgDfB/ZJzpHtZ8SGEpIkaYh2IX9WqQw1CVitzbFsmlWBP5J/7MpQE9scS0mSGu0W8l/My1B/IW7C0YqNp9k3wC39cyNJktrwAfJf0MtS9+Is14psBkwl/1iVpd7c3nBKkqQJwHPkv6iXpR4F9mtrROtrb+JmnexjVJZ6GBjV1ohKkiQAziD/hb1MtbB3TLyxKYwkxqOpGyUsrz7ZzqBKkqTF1gfmkv/iXra6HFi3jXGtg3WAyeQfi7LVLGDN1odVkiQt7VzyX+DLWP8ADmpjXKvsNcCD5B+DMtZZbYyrJEnqx7Z4Gnag+hWwccujWy0bABeQP+ZlrQXAFi2PriRJWq5fkf9CX+aaR1w7uXKrA1xyKxP/f/PIH+sy1w9aHWBJkjSwvch/oa9C3Q28nfrcST0SOB64g/yxLXs9D7ystWGWJEmD4a46g68HgBOBlVoa6XxjgROA+8gfy6rU91oZaEmSNHg7ENfEZb/oV6meAD4DrNfCeGdYF/gU8Bj5Y1elmgNs2MJ4S5KkITqb/Bf+KtYC4HfErjxjhzzq3TUGOBr4LTCf/LGqYn1jyKMuSVLD9bT479Ynrh8sW0NVJU8D5xHN3+XAtIQM44nrgF8DHAGsnpChLmYQ14o+mR1EkqSm+BL5M1F1qYXAzcA3iaZwgyEch6HYAHgjMYN3Ey7V1ck6cQjHQZIk9Wp1ZhRgVeKu8bU6lEUv9Cwx+3wHcHtvTSNmVJ/q/TiTWGZpFHE8ViNmN1cDJgATgZf3ftyM+i45le12YBviTnpJkjQE7TSjAO8G/qsTQaQKex3wm+wQkiRVUbvN6DDgCuAVHcgiVdFvgddmh5AkqarabUYhTv/eSNyNLTXJU8CWwMPZQSRJqqrhHfgeTxIzpPt24HtJVXIiMDk7hCRJVdaJmVGIG2iuI2aJpCb4PXAgcSe9JElqUaeaUYBdgD8Ts6RSnT1D3D1/X3IOSZIqrxOn6fv8A1gH2KmD31Mqo08Al2SHkCSpDjo5MwowGrga2K7D31cqiwuB1+PpeUmSOqLTzSjElojXAqt04XtLmR4GtiVn61ZJkmqpk6fp+0wHHgUO7cL3lrIsIH6mb8sOIklSnXSjGQW4AdiUmEWS6uDfgbOyQ0iSVDfdOE3fZzXgemDjLj6GVIS/AHsC87KDSJJUN91chulp4ChgdhcfQ+q2R4DDsRGVJKkrur0m6F+BY4CFXX4cqRueA15HLFsmSZK6oFvXjC7pduLmj/0KeCypk95G7LQkSZK6pIhmFOBK4oambQp6PKldXwX+IzuEJEl1180bmJY2DrgMd2hS+V0MHAbMzw4iSVLdFdmMAqwLXNP7USqjq4H9ietFJUlSl3X7Bqal/QPYl7hDWSqbG4FXYyMqSVJhip4Z7bM1MAkYn/T40tLuB15BbPkpSZIKUvTMaJ+bgUOAWUmPLy3pSeLn0UZUkqSCZc2M9tmNWDpn5eQcaq5HiUtHbs8OIklSE2XNjPaZArwemJOcQ81kIypJUrLsZhTgj8ARuG2oijWD2F3JRlSSpETZp+mXtDdwIbBqdhDV3pPEXfPXZgeRJKnpytSMAmxBXEPqOqTqlruIRvTe7CCSJKkcp+mXdCuwJ3B3dhDV0g3AXtiISpJUGmVrRiEahT2Bm7KDqFYuJ25WejQ7iCRJWqxsp+mXtBZwPjGTJbXjRmB34NnsIJIk6YXKODPa5wlgP+DL2UFUeesDC7JDSJKkZQ3PDrACi4BLiWtIXwuMyI2jihpLXI/89+wgkiTphco8M7qkc4lZUq/3U6vekR1AkiQtq8zXjPZnU+ACYJvsIKqchcAmwP3ZQSRJ0mJlP02/tBnA94jT93tSnZld5esBZgGTsoNIkqTFqjYzuqTdiNP3G2cHUWX8A9gQb2aSJKk0qjyzOAXYHvhJdhBVxrrAgdkhJEnSYlU7Tb+0ucAvgMeJBc1H5sZRBYwEzssOIUmS6uclwM+J60kta3n1PPGzIkmSSqDqM6NLmkXMeN0J7AGsnBtHJTUMeJi4zEOSJKkrxgGnAfPJn4mzylf3Ua83YpIkqaT2AB4hv/mxyleHIEmS0lX5bvrBuBK4PTuESunD2QEkSVL9m1FpefYCdsoOIUlS09mMqslOyA4gSVLT2YyqyY4GXpwdQpKkJrMZVZONBt6THUKSpCazGVXTvRcYkx1CkqSmshlV060NHJUdQpKkprIZlbyRSZKkNDajUizx9OrsEJIkNZHNqBQ+mR1AkqQmshmVwl7E9rGSJKlANqPSYs6OSpJUMJtRabHXADtmh5AkqUlsRqUXOik7gCRJTWIzKr3QG4Ats0NIktQUNqPSCw0DPpIdQpKkprAZlZZ1DLBRdghJkprAZlRa1kjgQ9khJElqAptRqX/vBTbJDiFJUt3ZjEr9Gwl8NjuEJEl1ZzMqLd8xeGe9JEldZTMqLd9w4AvZISRJqjObUWlgrwd2yw4hSVJd2YxKK3ZadgBJkurKZlRasb2AA7JDSJJURzaj0uD8G9CTHUKSpLqxGZUGZyfgsOwQkiTVjc2oNHifA0Zkh5AkqU5sRqXB2xJ4f3YISZLqxGZUGprPAhOyQ0iSVBc2o9LQrIHbhEqS1DE2o9LQvRfYKjuEJEl1YDMqDd1w4PTsEJIk1YHNqNSa/YHXZoeQJKnqbEal1n0NGJkdQpKkKrMZlVo3EXhfdghJkqrMZlRqz8nEHfaSJKkFNqNSeyYAX80OIUlSVdmMSu17G7BvdghJkqrIZlRqXw/wHWB0dhBJkqrGZlTqjInAh7NDSJJUNTajUuecDGyaHUKSpCqxGZU6Zyzw7ewQkiRVic2o1FmvAo7ODiFJUlXYjEqddzquPSpJ0qDYjEqd9yLgi9khJEmqAptRqTveBeyWHUKSpLKzGZW6YzhwLrBKdhBJksrMZlTqno2B07JDSJJUZjajUne9FzgwO4QkSWVlMyp1Vw/wPby7XpKkftmMSt23LvDV7BCSJJWRzahUjLcDh2WHkCSpbGxGpeJ8C1gzO4QkSWViMyoV5yXAN7NDSJJUJjajUrHejKfrJUn6fzajUvF+QKxBKklS49mMSsVbDfgZMDI7iCRJ2WxGpRw7A5/JDiFJUjabUSnPJ4H9skNIkpTJZlTKMww4GxifHUSSpCw2o1KudYH/zg4hSVIWm1Ep32HAe7JDSJKUwWZUKoevA9tkh5AkqWg2o1I5jCGuHx2bHUSSpCLZjErlsS2xIL4kSY1hMyqVy1HAv2SHkCSpKDajUvn8B7BHdghJkopgMyqVz0jgPOAl2UEkSeo2m1GpnF4MnAuMyA4iSVI32YxK5bUv8PnsEJIkdZPNqFRuJwFvyA4hSVK32IxK5dYDnAlsnB1EkqRusBmVym9N4DfA6tlBJEnqNJtRqRo2B/4Hb2iSJNWMzahUHa8i1iCVJKk2bEalavkA8N7sEJIkdYrNqFQ93wD2zw4hSVIn2IxK1TOC2KFps+wgkiS1y2ZUqqY1gAt7P0qSVFk2o1J1TQR+CYzKDiJJUqtsRqVq2wvvsJckVZjNqFR9JwCnZIeQJKkVNqNSPXyWaEolSaoUm1GpPk4HDs8OIUnSUNiMSvUxHPgxsEd2EEmSBstmVKqXscDFwDbZQSRJGgybUal+VgN+A2yQHUSSpBWxGZXqaV2iIXVRfElSqdmMSvW1JbFt6JjsIJIkLY/NqFRv+wMXYUMqSSopm1Gp/g4AfgaMzA4iSdLSbEalZjgU+Cmx/JMkSaVhMyo1xxuAs/B5L0kqEV+UpGY5HjgjO4QkSX1sRqXmOQH4WnYISZLAZlRqqg8BJ2eHkCTJZlRqrs8B788OIUlqNptRqbl6gP8EPpsdRJLUXDajkk4BTssOIUlqJptRSQAnAV/JDiFJah6bUUl9PgJ8hzh9L0lSIWxGJS3pPcB38XeDJKkgvuBIWto7gXOAEdlBJEn1ZzMqqT9vBn4MjMwOIkmqN5tRSctzFNGQjs4OIkmqL5tRSQM5ErgMGJ8dRJJUTzajklZkF+ByYP3sIJKk+rEZlTQYWwBXA1tnB5Ek1YvNqKTBWoc4Zb97dhBJUn3YjEoaijWA3wOvyw4iSaoHm1FJQzUO+BXwz9lBJEnVZzMqqRXDiZ2aPpAdRJJUbTajklo1DDgDOAsYlZxFklRRNqOS2vV24I/AhOwgkqTqsRmV1Al7AFOAidlBJEnVYjMqqVNeCvwZ2Cc5hySpQmxGJXXSmsDvgLcm55AkVYTNqKROGwX8gLi5yd8xkqQB+UIhqVs+APwIGJMdRJJUXjajkrrpWOAaYNPsIJKkcrIZldRt2wDXAYdmB5EklY/NqKQirAr8AjgNf+9Ikpbgi4KkovQAJxH72q+WnEWSVBI2o5KKdhDwF2DL7CCSpHw2o5IybEbs2PSG7CCSpFw2o5KyrAL8D3Ay/i6SpMYakR1AUqMNBz5PbCH6FuCR1DSSymwUsBIwGhhHrGE8dqmveQ6Y2/vnWcB0YH5RAdUam1FJZbA/cCOxjehvcqNIKtgawMuAlwDr935cD1int9YjVuRo1UyiKe2rh4F7e2tq78eHgYVtPIba0JMdoACTiFkXSeW3CDgd+DgwLzmLpM5aBdgC2Iq4gXGr3r+vmxmq11zgFuAm4GbizfFNwBOZoZrCZlRSGV0LvAm4KzuIpJZtBOzdW3sCL01N05oHgSuBq3o//h1YkJqohmxGJZXVM8D7gXOyg0galI2J19t9iAZ0w8wwXTKTaEx/B/wWuDM3Tj3YjEoqu3OIpvSZ7CCSlrEtcDhwGLB1cpYM9xBN6W+IfmNObpxqshmVVAVTgbcBl2cHkRpuGLAL0XweDmyaG6dUZgIXAecRM6c2pvp/k4ibIizLqnYtAL7Gsku5SOq+lwH/BjxE/u+CKtRM4FzgdcQSdmq4SeT/UFqW1bm6F9gXSd22JnAi8Dfyn/dVrunAd4Fthjb8qpNJ5P8gWpbV2ZoPnEYsfi2ps7YDvgXMIP+5XqdaAPyeuLzBXecaZhL5P4CWZXWn7gH2QlK7eoCDieWLsp/XTahHgFOA1QdxbGrPzlxSlW0CXAqcCoxMziJVUQ9wKPBn4EJg99w4jfFi4LPEWsqnABNS06jrJpH/DsiyrO7XDcA/IWkwRgBvIRZxz37uWrF03ZeI63Qbx5lRSXWxLXANcDYwPjmLVFY9wHHEcmlnE9tyKt/KwCeIHZ/OIGZOG8NmVFKd9BCzPdcBByVnkcpmG+IGmh8B6ydnUf/GAR8AbgM+BozKjVMMm1FJdbQBsfj0xdRzS0JpKDYCfk5cynJAbhQN0urAl4mbNI+j5psU2YxKqrPXES/A76Lmv8ylfowETgJuBI7A50AVrUfMZP8W2Dw5S9fYjEqqu9WJBacvA16enEUqyk7AX4n1eFdNzqL2vRq4CUFE55sAACAASURBVPg8MCY5S8fZjEpqij2JWdJ/xxdn1dc44KvA1cRNfaqPkcDJwPXE77PasBmV1CSjgI8CdwLvwN+Bqpf9idmzD+N+6HW2OXGm59vU5I21v4glNdGLgO8BfwH2SM4itWtl4uf5D8CmyVlUjB7gvcSbj8rPktqMSmqyHYEriDvvfRFXFe1GLFz/DrxBqYk2JGZJzwBGJ2dpmc2oJMWapLcRv9BrcdpLtTeM2Ebycly+rOl6iLVJryXWkq0cm1FJCiOJX+g3A8fg70eV16rAT4m9zUckZ1F5bAlcSSzjVSn+spWkF9oA+DFx5/0hyVmkpe1I7DB2ZHYQldIqwP8AX6FCb1RsRiWpf1sDvyJmSis306BaeivwZ7y+WQPrAT4CTKEil3DYjErSwLYitlL8HbGQuFS0HuAzwPdpyF7l6oidiNP2O2YHWRGbUUkanFcRO9r8AdghOYuaYyXgfOBUvFteQ7cecBXwpuwgA7EZlaShOYBYn/QHeLpU3fUi4s3P4dlBVGmjgXOAE7KDLI/NqCQN3XDi+r3biV/yW6SmUR1tDlxDrCMqtWs48E3g65Sw9ytdIEmqkBHAscAtxLVZ++XGUU3sTNyoVImbT1QpHwR+CYzJDrIkm1FJ6ozdgT8STenByVlUXbsSN8utkR1EtXUw8AtgbHaQPjajktRZuwMXEmtBHoE3nWjw9gUuBVbPDqLaOxC4hJLsOGczKkndsT2xJNSfiaa0MgtQK8XuxOnTlbKDqDH2Ai4iFspPZTMqSd21K9GU3gN8DE+/all7UaJZKjXKXsTmHqmn7G1GJakYGwBfBh4lmtNdcuOoJF4B/BZYOTuIGmtfYoY07aYmm1FJKtYo4rT91cDfgOPwFH5TvZy4vnhcdhA13v7Az0j6XWQzKkl5dgR+BNwMvA9YLTeOCrQO8GtgfHYQqdehwHdIuOlyeNEPmOCtwEbJGSRpIBOA1wEfADYDpgEPpCZSN61BLAM2MTuItJQdgIXAZUU+qDOjKrspxPVUUhOMA44HriB2d/oosSWk6mMccX3e1tlBpOU4hbh8qDA2oyq7ucDrgYuzg0gFmwj8O/AwsT/5EcT1pqquHuAnxDJOUln1AN+nwM07bEZVBfOAo4mdbaSmGQYcwOLloT6Hp3er6oPEdXlS2Q0Hzga2KOLBbEZVFc8CrwYuzw4iJVoP+DRxCn8qcBqweWoiDdZrgK9mh5CGYHXgNxRwk53NqKrkOeK0wV+yg0glsDFwEnAbcAtxndemmYG0XJsC5+JrrqpnQ+CndPmGd58YqpqZxAzptdlBpBLZAvgscDexdumJwItTE6nPSsAFuPOWquuVxBmZrrEZVRU9RcyQ3pUdRCqhHYHTgfuILSZPIGZRleMMYJvsEFKbTiaa0q6wGVVVPULsGHF3dhCppEYTZxG+SVxf+nfiGtM9acYa02VwJPCO7BBSBwwHfkyXlpqzGVWVPUgskXJzdhCpArYkrjG9nLjc5SLgXcC6maFqbCPgzOwQUgetDfwPXegdbUZVdY8Tsz+3ZweRKmQccBDwXeJ0/hXEklH7AmPyYtXGMGKdRrd3Vd3sTVz601GF7z+aYBKwT3YItWwy8QK5ImsAvwd26moaqf4WADcAlwJXEdsCzkxNVD2fAr6QHULqkueBPejgyjY2oyq7yQyuGYU4hXApbrMnddKzxMzpJOL5eD3xYqT+bQ9cjbtlqd5uJiZ/5nXim3maXnXyOLAfcGN2EKlGVgIOBL4MXEPMkk4BvgG8hVh0vwkTG4MxmrjJw0ZUdbc18IlOfbMRnfpGUklMI65puQTYNTmLVEdjiOfWks+v54ml1q4kTu1fSyzGv7DwdLlOpqDtE6USOBm4kDhb0pYmvJv1NH21TWbwp+mXtAbRkO7c0TSSBmsasZzU7cQOUbcBtxLLstXRS4lTl94ApiaZQlw/2tYbT2dGVVczgAOId2375EaRGmkC8dzbZ6nPP0U0pbeyeCvT+4EHiC1/q+o/sRFV8+xG3F3/jXa+iTOjKrvJtDYz2mcscB7wuo6kkdRN04GHiMb0od56sLf6/jwnLd3yHUmsvyg10UxgM+CxVr+BM6Oqu9nA4cA5xAuGpPJas7cG2j7zWaJpfZK4FGDaEn9fsqYD84nTh0/3/tu5LJ59nUVnVgVYFfh6B76PVFWrEkuZvbPVb2AzqiaYB7yZePF5e3IWSe1ZqbfW7+D3nNH7cclm9WmikX2eaGz7qxnAEcA6HcyixZ4F7uit23trOjETN7v3vz8FLCLO9K5O/GyMJRqkNYnVHjYHJvbWSoX+HzTH24BvEWsUD5nNqJpiAfDPREP6geQskspljewAYhFx/fBkYsvaa4jLNYZi+iC+ZgPixta9iUv4tqQZlyx223DiDEFLl9XZjKpJFgEnEu+qT07OIklN9zRxTf9viQZ0WgGP+UBvnd/79wnAnsBriVlut3Bt3T7EZXEXDPUfNuHdgDcwVdtk2ruBaXk+DHyFZjwHJKksFhI75f0I+AVxur0sxgKHAccRq7EMz41TSbcSC+IPaaknd2BSU/0HcDxuayhJRZgGfBbYEHg18BPK1YhC5PkJsePYhsBngCdSE1XPFsDRQ/1HNqNqsnOAV7H4TltJUmfdQbzxXxf4HLFEVxX8A/g8sB6R/47cOJXyRYa4Ja7NqJpuMvEu+MnkHJJUJ/cA7yCW6TqbWNWkiuYR+bcmVmO5OzdOJWwEvGko/8BmVIKriQvYh3rnpiTphWYDnybuUv8+1W1Cl/Y88ANgK+IG2CrvFlaETzOEa25tRqVwG7Hcx3XZQSSpos4BNiUWQJ+bnKVb5hKnoV9K/P8uyo1TWpsCRw32i21GpcUeA14JXJUdRJIq5GHgYOIu9EeSsxTlEeL/92Di+lIt68TBfqHNqPRC04mG9H+zg0hSBVwKbA9cnB0kya+BHYA/ZAcpoZ2BvQbzhTaj0rJmE4sfn5odRJJK6nngg8SKJI8nZ8n2OLFc1QepzzWynXLSYL7IZlTq3yLgFOD9xFaikqTwGLEKyRl4zWSfRcR4HEiMj8KBwMtW9EU2o9LAvk28430qO4gklcBNxGnpP2UHKalJxPjcmB2kJIYB7x3MF0ka2B+BPYD7s4NIUqIriO21H07OUXYPE+N0RXKOsjgOGDPQF9iMSoNzC7Ar8LfsIJKU4Hzi5s4Z2UEq4ilivM7LDlIC44HDB/oCm1Fp8B4F9gcuyQ4iSQU6H3gz9V07tFvmAscAP88OUgJvG+g/2oxKQzMTOAj4enYQSSrAH4FjibvnNXTPA2/BpZ/2BzZZ3n+0GZWGbgHwr8TuEm4JJ6muriIWdXdGtD3zgEOBK7ODJOohZtf7ZTMqte7nwO64p72k+rmNaKBmZwepidnA64Fbs4MkOmJ5/8FmVGrPDcCewPXZQSSpQ6YTlyM9mR2kZp4kZpqnZwdJsg3LWXPUZlRq3wPAbsAPk3NIUrsWEDNYU7OD1NRUYnybupnKm/r7pM2o1BlzgbcTuza5I4mkqjoDF7Tvtj8R49xE/S7xZDMqdc4iYj/7w4m77iWpSq4BPp4doiE+Tox302wLbLD0J21Gpc77JbALcHt2EEkapKeAo3EJp6I8T4x3E7eaPnDpT9iMSt1xO7A9XkcqqRo+BtyXHaJh7iPGvWlet/QnbEal7plD7DrxbpxtkFReU4CzskM01FnA1dkhCrY/MHrJT9iMSt13JvHkezQ7iCQtZQFwArAwO0hDLQTeT7Purl8J2GPJT9iMSsW4glgg/8bsIJK0hLOA67JDNNx1wA+yQxRs3yX/YjMqFWcq8Arg7OwgkgQ8DXwyO4QA+ATNWoXFmVEp0XPA8cAbiBcCScpyOu6yVBbTaNbao7sCY/r+YjMq5bgA2BlP20vK8TTw9ewQeoHTgWeyQxRkNLBj319sRqU8dxLvDr+RHURS43wHz86UzXTg29khCvT/p+ptRqVcc4ATieWf5iRnkdQMs2nWKeEqOYPmvBbs2vcHm1GpHM4EdgPuyg4iqfZ+jEvNldUjxPFpgm37/mAzKpXHDcBOwE+yg0iqtR9lB9CAmrLiykbAqmAzKpXNTOAY4m776clZJNXPHcBV2SE0oCuIewrqrgfYBmxGpbK6ANgOuCw7iKRaOTc7gAblp9kBCmIzKpXcg8B+wAdxb3tJ7VtEc04BV905xPGqu63BZlQqu4XE3ZWvAh5KziKp2v4C3J8dQoNyD83YpnUi2IxKVTEZ2JJ4tyxJrfhddgANySXZAQqwMdiMSlUyEzgO+Geas0uHpM7xGvRqacLxWg8YYTMqVc9ZwGbARdlBJFXGbLyLvmquoP4L4I8A1rcZlarpUeAQ4HicJZW0Yn8G5maH0JDMAa7ODlGAjWxGpWo7G9iZuDFBkpanCad862hydoACbGgzKlXf7cQev+8GnkvOIqmcrs0OoJY04bi92GZUqodFxP72ewA3J2eRVD53ZQdQS5pw3MbbjEr1cj2wA7FQ/rPJWSSVw1xganYIteQe6r/pyQSbUal+5hML5W8LTErOIinfVGBBdgi1ZD71fyPhzKhUY/cA+xPXknrHvdRcd2QHUFvqfvycGZVqru9a0h1oxl2ZkpZ1T3YAtaXux28Nm1GpGe4G9gWOBKYlZ5FUrKeyA6gtdT9+Y2xGpWY5D9ge+GV2EEmF8TKdaqv78RttMyo1z0PAYcRM6W3JWSR1X92bmbqbmR2gy2xGpQabTNxx/3Hqv/+x1GQ2o9VW9+M3ymZUarbngS8DWwO/S84iqTvq3szUXd2PnzOjkoC4wek1wD8D05OzSOqsui+aXnd1P37DbEYl9VkEnAVsDvyg9++Sqm/l7ABqyyrZAbpsns2opKU9AbydWJv0iuQsktpX92am7up+/ObajEpanhuAvYBDgPuTs0hqXd2bmbqr+/FzZlTSCl0EbAGcinfdS1VU92am7up+/JwZlTQozwGnAFsRC+dLqo66NzN1V/drfm1GJQ3JPcSWom8A7k3OImlwXpwdQG15SXaALptlMyqpFRcAmwHvBh5LziJpYC/PDqC21P34TbMZldSq+cCZwEuJ60ln58aRtBwTswOoLXU/fjajkto2i7iedDOiOV2YmkbS0iYA47NDqCVrAWtmh+iyJ21GJXXKQ8Rp+52By5KzSHqhus+u1VUTjpvNqKSOuxbYF3gzccOTpHx1v+6wrppw3GxGJXXFIuCnxKn7I4G7c+NIjbd3dgC1pAnH7QGbUUndtJBYl3QL4hT+P3LjSI21f3YADVkPsF92iALcazMqqQjPEzc3bUI0pY/mxpEaZx3iTIWqY3Pqv8Yo2IxKKtg8Fi8H9XHgqdw4UqPsmx1AQ9KEWdHpwEybUUkZngW+TNwp+hVieShJ3dWE6w/rpAnH6z4Am1FJmR4HPgZsDPwb8ExuHKnWXgOMyQ6hQRkLvDo7RAHuAZtRSeUwDfgkcV3bB/GaUqkbVgdenx1Cg3I4sGp2iALcBDajksplFnAGcU3pB4FHcuNItfOW7AAalGOzAxTEZlRSaT1LNKWbA58iTudLat8riS0mVV5rAwdkhyjI38FmVFK5zQS+BKwHHA/cmhtHqryRwDHZITSgY4AR2SEKMBO4F2xGJVXD88DZwDbAm4Drc+NIlfYOYkF1lc8w4vg0wS3Ebn02o5IqZQHwM2AHYE/gYnp/mUkatK2AN2aHUL+OALbMDlGQa/r+YDMqqaquBA4GdgHOJxpVSYPzcZwdLZse4KTsEAWa0vcHm1FJVfdXYjZhXeIF9h+5caRK2IF4M6fyOBTYPjtEgS7r+4PNqKS6eIzY1WkT4EiWeNctqV+fxdnRsugBPpMdokBTid/ZgM2opPqZB5wH7E4sY3MRsDA1kVROO+Ai+GVxOM2aFX3BZIHNqKS6WgRcChwCbAacDsxITSSVz+nAStkhGm4l4OvZIQp2+ZJ/sRmV1AT3AB8CXkycwr8Yb3iSADYATs0O0XCnAutnhyjQIuA3S37CZlRSk/Sdwj8Y2Ii44enBzEBSCZxIrOGr4m1LjH+T3AI8tOQnbEYlNdVDxA1PmwHHAVfkxpHSjAC+hjczFa0H+A+asdvSkn6/9CdsRiU13RzgHGAvYAvixeHR1ERS8fYHPpwdomE+TIx701yy9CdsRiVpsduAjxDXbx1EnNKfm5pIKs6XgN2yQzTEbsR4N80slrp5CWxGJak/84FfEzc7rdH78VLcelT1NpJ4A7ZWdpCaW4sY55HZQRL8in7e4NuMStLAZhMvHK8k9oz+Mu7ypPpaF/geXj/aLT3E+K6bHSTJ+f190mZUkgbvNuIO/A2AvYFvA4+nJpI67xDgC9khaurzxPg20Uz6uV4UbEYlqRULieue3g+8BNgT+AbwSGYoqYM+CXw0O0TNfAT4VHaIRBcQN4wuw2ZUktqzELiSWCtwI2IN0x8DzyRmkjrhNODo7BA1cRRxiU+T9XuKHmxGJamT5hG7O70FWJtoTL+Hp/JVTcOAHxHXS6t1+xPj2OSe61H6WV+0T5MHRpK6aQ7RmL6TOJW/B/AV4O7MUNIQjQJ+Abw2O0hFHQj8EhidHSTZD4Hnl/cfbUYlqfsWAlcBHwNeBmxFXDv2V1wuSuW3ErEkz1uTc1TNccCFwMrZQZItAr4/0BfYjEpS8W4hFrzeGZhArGN6JvBwZihpACOAHxDXkWrFTiNOzTdxLdGl/RG4a6AvaNp+qJJUNtOJdUzPI34n7w68pre2Scwl9eckYqb0Q8TmEHqhEcDXgH/JDlIiP8wOUAaTiCliq5o1adlDKjXGesQ1pxcAT5L/fLSsvrqC+PnUYusSS75lH5sy1SMM4npZT9NLUnk9BPw3cDgwHtgUeDdwDvBgYi5pD+JykyOyg5TEG4FbiTWHtdjX6Gf7zyaaRP47A6v1mrTsIZUEDAd2AP4VuAh4ivznq9W8WkDs1tTUy/5GELsqLSD/WJStZgJrtD609TKJ/ANitV6Tlj2kkvoxHNgOeB9wNnAn+c9fqzl1A3G9c5O8gvj/zh77stbXWh/a+plE/gGxWq9Jyx5SSYO0FrHw/heJ59Is8p/TVn1rIXHH/drU21rEUkULyR/zstY8YINWB7iOJpF/UKzWa9Kyh1RSi0YQs6fvBP6LWOd0LvnPc6teNR04gVgwv05GEWceppM/xmWv7w1lYHuG8sUVNQnYJzuEWjYZ2Dc7hFRz6wA79tbuwG7E8j1SO54Avk2crp2ZnKUdqxLXZr+X+s/6dsJs4KUMYd1km1GV3WRsRqWijSJ2iXo5sGXvx62AjYlrU6WheBj4KvBd4LnkLEMxjjiL8FFi2SYNzn8Rjfug2Yyq7CZjMyqVxWiiMV2ySZ1ILDk1JjGXquFJ4KfAucDVyVkGsgtwDPAmYoc0Dd4cYsvjh4byj5q6FIMkaejmEncP37DU53uIU/2bLqfWLDCjyms8cS3pCcT2kD8mGtN7MkP12gQ4lmhCN0vOUmVnMsRGFJwZVflNxplRqerWIHbr2YA43blu75/X6f38+sAqaemU7XbgT701mZhB7bbxRG+wX29tXsBj1t1TRCP/xFD/oTOjkqRum9FbNw/wNasQTen4pWpCP58bT1zPt3L3IqtAm/fW+4jlkm4EpgC3AXf01oPEXdpD1UP8XE3srZcTN+hti7tQdtrnaaERBZtRSVI5PENspzhUqxGN6ThgdWIVgHFEc7sayzYcq7P8s4JzWXyDzTPAfGJnnZnAs8RdwjOJ9Vpn937Nu4kbNtQZw4Dte2tJzxJN6XTiGMzu/VzfzmM9LD7+Y4k74NckGlBXhui+O4H/bPUf24xKkqrs6d7KciZwFF5O1G0rEdvfqpzeRyx03xKnqCVJat0i4EPELKrURL8D/tjON7AZlSSpPTcCX8kOISV4BnhXu9/EZlSSpPZ9HpiaHUIq2CeAB9r9JjajkiS1bzbw/uwQUoGuBL7TiW9kMypJUmdcAvw8O4RUgHksXoqrbTajkiR1znuINTGlOjuVgdcNHhKbUUmSOmcGsaf5guwgUpdcCpzWyW9oMypJUmddBXwpO4TUBdOA4+nQ6fk+NqOSJHXe54gtLaU6eSfwcKe/qc2oJEmdNx94O4u3F5Wq7vvAL7vxjW1GJUnqjtuJG5qkqrsOOKFb39xmVJKk7jkHrx9VtT0OvJ5YS7crbEYlSequTwMXZoeQWjAfOJouL1dmMypJUnctJO5AvjM7iDREpwKTuv0gNqOSJHXfU8CBxNI4UhV8B/hCEQ9kMypJUjHuBd6KC+Kr/CYBHyzqwWxGJUkqzq/pwqLhUgfdABxK7D9fCJtRSZKKdS7w2ewQUj8eBQ4DninyQW1GJUkq3heAr2aHkJbwGLAXcF/RD2wzKklSjo8Ru9pI2WYArwLuynhwm1FJknIsAt4F/CI7iBptFvBa4KasADajkiTlWQAcRwFrOUr9mEcsan91ZgibUUmScs0i1iD93+wgapRniFPzv84OYjMqSVK+ecBRwI+yg6gRpgP7A5dlBwGbUUmSymIB8Hbge9lBVGtPAAcAf80O0sdmVJKk8lgIvBs4MzuIaulR4tT89dlBlmQzKklSuSwE3gOcStxxL3XCLcCuxA5LpWIzKklS+SwCTgHeADybG0U1cBGwC3B/dpD+2IxKklRevwBeATyQHUSV9S1ii8/SvqmxGZUkqdxuIrZpTFuUXJU0H/hX4ATi5rjSshmVJKn87gf2IE63SivyGHHH/NezgwyGzagkSdXwDHAIcbf93OQsKq9Lga0oyRqig2EzKklStZwJ7EtJb0ZRmkXA6cDrgGnJWYbEZlSSpOqZAmwN/CQ7iEphKrA78CFiN69KsRmVJKmangGOAY6nxHdKq+vOBXYg3qBUks2oJEnVdjax/NPfsoOoUDOJ64ePBZ5OztIWm1FJkqrvJmBnojmZmZxF3XcOsBk12TbWZlSSpHpYRDQnmwMXJGdRdzwIHAQcRyzfVAs2o5Ik1csjwBuBtwHTk7OoMxYC/w1sB/w6OUvH2YxKklQ/i4AfErOk3wKeT02jdlwJ/BPwLmr65sJmVJKk+nqC2A5yU+IU/sLcOBqCe4hNDvYErkvO0lU2o5Ik1d+DxM1N+wJ/Tc6igU0DPg5sQ0O2f7UZlSSpOS4HdgHeDNyRnEUvNAM4GdgE+DLwXG6c4tiMSpLULIuAnwJbAEcA1+bGabwngVOAjYEvEpsZNIrNqCRJzbQQOB/Yibgu8WKiUVUxbiF2z1oHOJWKL1zfDptRSZJ0JXAwsb/5L4H5uXFq7S/AkcC2xO5ZldtLvtNsRiVJUp8pwGHAWsQNTzfkxqmNx4nrQDcnrtk9D1iQmkiFmkScdrCqWZOWPaSSpIL0EHfg/xiYTf5rQpVqIXHD2HHAuKEOvOplEvk/kFbrNWnZQypJSrAG8B7gD8Qi+tmvD2Wt64GTgI1aGmXV0iTyfzCt1mvSsodUkpRsTeCtwK9wxnQhcTnDKcRpeA3RiOwAkiSpcqYT243+EFgZeC2xW9DewHppqYrzGDFD/Pvej4/mxqk2m1FJktSOWcDPewtivcw9e2sP6jFb+H/t3XmwJWV5x/HvvbMwwx0HZoNZWFXAUQQEQ4ICCiKLooaoCSmNmrgkliamrMKN0oomMaRiVKKpBLOgEDVRq4wJCggoyACRRRxQkG2AGQRmBWZz9skf77l6Ge+93HO6Tz/d/X4/Vb+agYJznnnf29XPdPf79grSjgM3ANcDd5KuiqoENqOSJKlMD3ZySeef9yNtGXUs8ELSay4PIS2OqqNVwFLgDtI74ZcAy0MrajmbUUmS1E+rgG92MmwmcCSpMT0KOAJYABxIuu3fb1tIDfMyftU830lqQFdW8P0awWZUkiRVbT1wYyd7ehbpudOFwKLO72cCU4EhYC/SVknTgOkj/r/NwFZgE2kj+Y2kZ1v3zKPAY2X/gdQ7m1FJklQnG4C7O1EGfAOTJEmSwtiMSpIkKYzNqCRJksLYjEqSJCmMzagkSZLC2IxKkiQpjM2oJEmSwtiMSpIkKYzNqCRJksLYjEqSJCmMzagkSZLC2IxKkiQpjM2oJEmSwtiMSpIkKUzbm9FjgOdGF6FCngMcHV2EJElSN+YAlwC7gN2m8dnVmc85SJIk1dgA8BbgceIbKFN+HuvM7wCSJEk183zgWuIbJtP/XAssRpIkqSbeDWwivkky1WUj8C4kSZICLQCuIr4xMnH5LjAfSZKkir0KWEl8M2TisxI4C0mSpApMBS7ElfLm6dlF+rmYiiRJUp8sBJYQ3/iY+uYHpMc3JEmSSnUqsIb4ZsfUP6uBU5AkSSrJB4HtxDc5pjnZDvwZkiRJBUwHLiW+sTHNzUX4HKkkSerBXOD7xDczpvm5Gl8lKklSLdX1tYqHkfYPPTi6ELXGQ8ArgfuD65AkSSMMRhcwimOA67ERVbkOIf1cHRVchyRJGqFuzehLSbfm948uRK00n/Re+xOC65AkSR11akbPJL3acd/oQtRqs0iPgJweXYgkSaqPs4HNxC90MflkE+mVspIkKXO/C+wgvjkx+WUb8FokSVK2Xg1sJb4pMflmK3AWkiQpROTWTqcA3yZtbC9F2ky6ZX9ddCGSJOUmqhk9EbgS2Dvo+6U9rQdOA26JLkSSpJxENKPHAdcA+wR8tzSeJ4FTgdujC5EkKRdVN6OLgB92fpXqaAVwPPB4dCGSJOWgyn1GZ5L2EbURVZ0dCFwODEUXIklSDqpqRicB/wk8v6Lvk4o4BriUer0UQpKkVppU0ff8DfC2ir5LKsNiYArwvehCJElqsyqa0XcCf1vB90hlOwlYBtwRXYgkSW3V7wVMv0Hau9G9RNVUvyA1pbdFFyJJUhv1sxmdA/wYOKCP3yFVYQXpOdJ10YVIktQ2/VqgMQB8CRtRtcOBwL9EFyFJUhv165nRPwXe16fPliIsBlbjG5okSSpVP27THwvcCOzVh8+WIm0FTsA3NEmSVJqywbisyQAAEwdJREFUm9GZpIUezy35c6W6uI/0StsN0YVIktQGZd+mvxA4veTPlOpkDukvXd+JLkSSpDYo88roK0mv+5Tabjfp5/2a6EIkSWq6sprRIeAnwCElfZ5Ud/cBR5P2IZUkST0q6zb9J4CzS/osqQnmdH71daGSJBVQxpXRFwE3A5NL+CypSXaQ3jL24+hCJElqqqKb3k8CLsJGVHmaTPr579d+vZIktV7RZvQdpCtDUq6OB/4oughJkpqqyG36mcD9wLySatHTbQLu6eRnnawD1pMWzWwCniSt7B4A9iUtJJtOmpvZwBGkNwcdARwOzKj0T5CPlcBhuPeoJEldK3J7/UPYiJZlN/BT4FrgB8APgeVdfsa6Cfw3B5Gu5J0MvBw4kv68hSs3+wMfAD4aXYgkSU3TayNyIOmK3fQSa8nNU8DXgctJDeiagBrmkBrTs4A3kq6uqjebSVeffx5diCRJOfgK6Wqe6S7bgK8Bp1G/RS+TSHV9jfQO9uixamIu6XrUJUlS144FdhJ/4m9SVgMfAw7oYbwjLALOJz0LGT12TcoO4KgexluSJHXhGuJP+k3JcuB9pIVFTTQdeC/wEPFj2ZRc0ctAS5KkiTmZ+JN9E3I/abufqb0Nc+1MAd5Kek44emybkBN6G2ZJkvRMriT+RF/nbCBdCW3rSwAmk/5864kf6zrnsl4HWJIkje044k/ydc43SM9a5mAhaaFT9JjXOS/qeXQlSdKovkz8Cb6OWQu8ucC4Ntm5pMVZ0XNQx3yx92GVJEl7Ooy0Ujj6BF+3XAHsV2Bc22Ae8B3i56Ju2QE8p8C4SpKkES4i/uRep2wjPTvp24uSAdJ4bCN+buqUzxcZVEmSlMwlvV0m+sRelzxO2hxev+4U4FHi56gu2QjMKjSikiSJ84g/qdcld5AW72hsC4ClxM9VXfLnxYZTkqS8DeDeksO5EZhdbDizMQtYQvyc1SF3FRxLSZKy5ib3KVfQ3LcoRdkbFzYNx03wJUnq0cXEn8ijcznptZjq3l7A/xI/h9G5qOhASpKUo1m4cOk6YFrRgczcVOC7xM9lZDYCM4sOpCRJuXkP8SfxyNyODURZZgK3ET+nkXln4VGUJCkzNxF/Ao/KCuDA4kOoEQ4AHiZ+bqNyXfEhlCQpH4uAXcSfwCOyHnhB8SHUKBYDTxE/xxHZAexffAglSWqXwTH+/e+Q59uFdgNvAn4aXUhL3U0a393RhQSYBJwTXYQkSU1xDfFXkiLyuTIGT8/os8TPdUSuLGPwJElqu7mkW4rRJ+6qcytpKyL13xTSSwSi57zqbMPXg0qS9DSj3aY/i3RLMScbSbePt0YXkontwNtI456TKcCZ0UVIklQnozWjr6+8ingfIb32VNW5F/hwdBEB3hBdgCRJdTaFdLUq+nZmlVkKTC5j8NS1ycCPif8ZqDLr8edNkqRf2vPK6PHk9Q72ncDbSc/Iqno7gHeQ5iEXzwJeHF2EJEl1sWczenJIFXG+QFq4pDi3kuYhJydFFyBJUl1dRvxtzKryJDCnnGFTQXPJazP8b5UzbJIkNd/IK6OTyOuKzT8Aa6OLEABrSPORi5MY+4UTkiRl6zjirxhVlfXA7HKGTSWZA2wg/mejqhxdzrBJktRsI6/O5PS86BeAddFF6GnWktezozkdb5IkjWlkM/qSsCqqtY30OkrVz2dI85ODE6ILkCSpDkY2o7ncNvwq8Eh0ERrVI6T5yUEux5skSRMyRNrrMfo5uiqS0yKtJjqZ+J+RKrIdmFbSmEmS1FjDV0YXk8fq3geAJdFFaFzXA8uii6jAZOB50UVIkhRtuAE9MrSK6lxKuiql+toN/Ed0ERXJ5biTJGlMw83oC0KrqMZu4EvRRWhCLiGPvzTYjEqSspdTM3oz8FB0EZqQB4DboouoQA7HnSRJ48rpNv1V0QWoKznMVw7HnSRJ4xokreg9ILqQClwTXYC6ksN8HQRMjS5CkqRIg8ACYCC6kD77BXBTdBHqyg3Alugi+mwQmB9dhCRJkQaBhdFFVOBGYGt0EerKFvL4C0QOx58kSWPKpRm9LroA9SSHecvh+JMkaUyDwKLoIiqQw8rsNsph3nI4/iRJGlMuV0bviS5APclh3nI4/iRJGlMOzehW3F+0qR4kvcO9zdp+/EmSNK5BYP/oIvrsQWBndBHqyQ7S/LWZq+klSVkbBGZEF9FnP4suQIW0ff6GoguQJCnS8Kb3bfZAdAEqpO3z1/bjT5KkcQ0C06OL6LMnowtQIW2fv72jC5AkKVIOV0Y3RBegQtZHF9BnbT/+JEkaVw5XRm1Gm63t89f240+SpHF5ZVR11/b5sxmVJGXNK6Oqu7bPX9uPP0mSxjUITIouos/avml627V9/tp+/EmSNK5BYFt0EX32rOgCVEjb56/tx58kSePKoRlt+6b+bdf2ZnRrdAGSJEXKoRltezPTdm2fv7Yff5IkjWuQ9l+ZaXsz03Ztn7+2H3+SJI3LK6Oqu7Y/ZmEzKknK2iCwMbqIPpsfXYAKWRBdQJ+1/fiTJGlcg8Ca6CL6bHF0ASqk7fPX9uNPkqRx5dCMHhFdgApp+/y1/fiTJGlcg8Da6CL6bC4wJ7oI9WQeMDu6iD5r+/EnSdK4cmhGof1X19oqh3nL4fiTJGlMuTSjbX/usK1ymLccjj9JksY0CCyPLqICL4suQD3JYd5yOP4kSRrTIPBQdBEVeEV0AeraAHBqdBEVeDC6AEmSIg2Sx8lwIXB4dBHqyhG0f49RyOP4kyRpTIPAOuCp6EIqcEp0AepKDldFnwDWRxchSVKkwc6vOTy3lsPzh22Sw3w9FF2AJEnRhpvRB0KrqMZZwLToIjQh04EzoouoQA7HnSRJ4xpuRpeGVlGNfYHfji5CE3IOsE90ERW4I7oASZKiDTejd4ZWUZ0/iC5AE/Lm6AIqYjMqSVLHYcDuDLIdmF/SmKk/5pPmKfpnpYo8u6QxkySpsUY+M7oxspCKTAbOjS5C4zqXNE9ttx63dZIk6ZfN6C7g7shCKvR20obqqp8B0vzk4C7S1VFJkrI2OOL3PwyrolpHAm+ILkKjeiNpfnKQy/EmSdK4RjajN4RVUb3z8epo3QwCH4suokI5HW+SJE3IQcQv6Kgyry1n2FSS1xH/M1FlXEgnSdIolhN/kq4qt+HV0boYAH5E/M9EVVlWzrBJktR8g3v88/+FVBHjWNwEvy7OAV4UXUSFboouQJKkutizGf1BSBVxPgsMRReRuSHgM9FFVCy340ySpAk7lPhbmFXnU6WMnHr1d8T/DFSdA0oZOUmSWuoe4k/WVWY7cFQpI6duHUU+b1sazk9KGTlJklpiz9v0AN+tvIpYk4FP42Kmqg0Af08eb1saKbfjS5Kkrp1J/NWjiJxfxuBpwj5E/JxH5BVlDJ4kSW22N7CZ+JN21dkGnFDC+OmZ/Sawlfg5rzobgWkljJ8kSa0x2m36zcBlVRdSA1OArwPzogtpubnAN4Cp0YUE+BawJboISZLqZLRmFOC/Kq2iPhYBlzD2uKiYAdL45rqaPNfjSpKkrg2RbilG39aMyl8XH0KN4uPEz21UnsJb9JIkdeXLxJ/AI3Ne8SHUCO8nfk4j88XCIyhJUmbOIf4EHpmdwLmFR1EAbwB2ED+nkTm78ChKkpSZycCjxJ/EI7OD1JSrd2eSdiqInsvI/Jz89lOVJGlCxluoswP4alWF1NQk4FLgVdGFNNTppB0KpkQXEuxS0vEkSZK6dDiwi/grS9HZAby74Fjm5o/x1vxu0uMehxYcS0mSsnYt8Sf0uuSCYkOZjQuIn6u65OqCYylJUvbeSvwJvU75HD7/N5bJwKeJn6M65c2FRlSSJDEdWEn8Sb1OuZ58N24fy0K8ir5nHsO9RSVJKsVHiD+x1y1PAW8sMqgt8nrgSeLnpG75QJFBlSRJvzIX2ET8yb1u2Qn8Ffnetp8E/AVpHKLnom7ZAMzqeWQlSdKv+SzxJ/i65l7gjN6HtpFOB+4hfuzrmk/1PrSSJGk0z8GtesbLLuBiYL9eB7gh5gL/ildDx8t24OBeB1iSJI3tUuJP9HXPOuC9wNQex7iupgB/Aqwlfozrnn/vcYwlSdIzOBjYSvzJvglZRXqecmYvA10jewMfxB0VJpotwEE9jbQkSZqQi4g/4Tcpq0lN6b49jHWkfUh1ryZ+DJuUz/cw1pIkqQuHAtuIP+k3LWtIG+b/VvdDXqnjgQtJV3ajx6xp8aqoJEkV+WfiT/xNzr3Ax0iLwurgUOCjwM+IH5sm53PdDrwkSbkb6PH/mwfcR7qVq2IeA5aQ3mF+BbC8gu88CDgTOA04EVhQwXe23VrgMOCJ6EIkSWqSXptRgA8DnyyrEAFpe6ilwE3A3aR9PO8BVpCuvPXiIOCIThaTHhM4BhgsWqye5jzcW1SSpK4VaUanAXeRbvGqvzaRmtJ1wHrgF51/N/wKzgHSAqkhYDppBf9sUgM6FFBvbu4DjiQ9Sy1JkrpQpBkFeB3w32UUIjXYq4HvRBchSVITFW1GAb4HnFLC50hNdBXp1aiSJKkHZTSjhwB3AjNK+CypSTaQbs9XsehMkqRWmlTCZzxJeivTGSV8ltQk55GujEqSpB6VcWUU0srs64GXlPR5Ut0tAV5G2gFBkiT1qKxmFOCFwK3A1BI/U6qjLaTtse6JLkSSpKYr4zb9sFXAZODlJX6mVEcfB74ZXYQkSW1Q5pVRSLfrr8bV9Wqva0ir5709L0lSCcpuRgEOIL1FaHYfPluKtBY4Gvh5dCGSJLVFP14J+Qjwrj58rhTtndiISpJUqjKfGR3pbuBw0qImqQ2+CFwQXYQkSW3Tj9v0w6aRtr85ro/fIVXhFuAk0n66kiSpRP1sRgEOJm33NLfP3yP1y2rSX6hWRBciSVIb9eOZ0ZEeBn4f2Nnn75H6YSdwLjaikiT1Tb+eGR1pGWkj/JMr+C6pTJ8gPSsqSZL6pIpmFOD7wKGkbXGkJrgYeH90EZIktV2/nxkdaQpwOfCKCr9T6sVVwKuB7dGFSJLUdlU2owAzSSvs3fJJdbWU9EjJ+uhCJEnKQdXNKMBzgRuBeQHfLY1nJXAC8GB0IZIk5aLfq+lHcz/pVv3agO+WxrKSdEXURlSSpApFNKMAdwKvAjYEfb800hPAGcC90YVIkpSbqGYU4GbgTGBTYA3SRtJipaXRhUiSlKPIZhTSs6NvwlXLirGd9PN3U3QhkiTlKmIB02hOAf4HmBFdiLKxEXgNcG1wHZIkZa0uzSjAScBlpO2fpH56CjibtM2YJEkKVKdmFOA44EpgTnQhaq01pMVKP4ouRJIkxT8zuqfbgLOA1dGFqJVWYiMqSZImYBFwO7DbmJJyG7AQSZKkCZoBfJv4JsY0P5fh4jhJktSDycA/Ed/MmObmH4FJSJIk9WgA+BCwg/jGxjQn24HzqN8iPUmS1FAnAo8S3+SY+udh4MVIkiSVbD/ge8Q3O6a+uRqYhyRJUp9MAz4P7CK+8TH1yS7gQmAvJEmSKnAqsIL4JsjEZwXplbKSJEmV2hf4CvHNkInLl4F9kCRJCjIAvAfYQHxjZKrLeuDduFpekiTVxHzg68Q3Sab/uQTYH0mSpBp6DT5L2tYsB85GkiSp5uYBFwM7iW+gTPHsBP4NmIskSVKDLAauIL6ZMr3ncuB5e06sJElSk7wGWEZ8Y2Umngc68yZJktQKM4DzgXXEN1pm7KwBPgwMjT6NkiRJzTYEvA94nPjGy/wqj3XmZe+xp06SJKk9ZgF/CTxBfCOWc9YCHye9wECSJCk7ewFvAe4ivjHLKT/tjPvUZ54iSZKk9psMnAvcSnyj1ubcAvxeZ7wlSZI0iucBFwCriG/e2pBVnfF0iyZJkqQuDAF/CNxAfEPXtOwCrgfehouSJEmSCltEWu29hNRoRTd7dcyuzvi8C9+WJEmS1DfPBz4B3EF8AxidXcBS0or4xUUGVZIk5WcguoAWmAOcCpwGnAEcHFtOJR4GrgQuA74PbIwtR5IkNZXNaLkGgaOAk4CXAieSbu833SOk2+83kJ4DHb4iLEmSVIjNaP8dTGpKjyU1qkcD80IrGt8qUrO5FLid1HwuD61IkiS1ls1ojAXACzs5tJNnA4cA0yr4/i3Ag50s6/x6ZyePV/D9kiRJgM1o3QyQGtWFwOxOZo34/QzSG4uGSG+OGrll0mZgK7AJ2EZ6jnPdHnkCeLQTSZIkSZIkSZIkSZIkSZIkSZIkSZIkSZIkSZIkSZIkSZIkSZIkSZIkSZIkSZIkSZIkSZIkSZIkSZIkSZIkSZIkSZIkSZIkSZIkSZIkSZIkSZIkSZIkSZIkSZIkSZIkSZIkSZIkSZIkSZIkSZIkSZIkSZIkSZIkSZIkSZIkSZIkSZIkSZIkSZIkSZIkSZIkSZIkSZIkSZIkSZIkSZIkSZIkSZIkSZIkSZIkSZIkSZIkSZIkSZIkSZIkSZIkSZIkSZIkSZIkSZIkSZIkSZIkSZIkSZIkSZIkSZIkSZIkSZIkqRX+Hy1wclAQQg05AAAAAElFTkSuQmCC;fontColor=#007FFF;" parent="1" vertex="1">
                    <mxGeometry x="192.5" y="500" width="45" height="60" as="geometry"/>
                </mxCell>
                <mxCell id="17" style="edgeStyle=orthogonalEdgeStyle;rounded=0;orthogonalLoop=1;jettySize=auto;html=1;fillColor=#1ba1e2;strokeColor=#006EAF;" edge="1" parent="1" source="9" target="2">
                    <mxGeometry relative="1" as="geometry">
                        <Array as="points">
                            <mxPoint x="213" y="370"/>
                            <mxPoint x="213" y="370"/>
                        </Array>
                    </mxGeometry>
                </mxCell>
                <mxCell id="9" value="schedule" style="aspect=fixed;html=1;points=[];align=center;image;fontSize=12;image=img/lib/mscae/Clock.svg;fontColor=#007FFF;" vertex="1" parent="1">
                    <mxGeometry x="190" y="380" width="50" height="50" as="geometry"/>
                </mxCell>
                <mxCell id="11" value="&lt;font color=&quot;#007fff&quot;&gt;update script&lt;/font&gt;" style="shadow=0;dashed=0;html=1;strokeColor=none;fillColor=#4495D1;labelPosition=center;verticalLabelPosition=bottom;verticalAlign=top;align=center;outlineConnect=0;shape=mxgraph.veeam.script;" vertex="1" parent="1">
                    <mxGeometry x="465.2" y="270.7" width="44.8" height="44.8" as="geometry"/>
                </mxCell>
                <mxCell id="21" style="edgeStyle=orthogonalEdgeStyle;rounded=0;orthogonalLoop=1;jettySize=auto;html=1;entryX=1;entryY=0.5;entryDx=0;entryDy=0;fillColor=#1ba1e2;strokeColor=#006EAF;" edge="1" parent="1" target="8">
                    <mxGeometry relative="1" as="geometry">
                        <mxPoint x="430" y="450" as="sourcePoint"/>
                        <Array as="points">
                            <mxPoint x="430" y="530"/>
                        </Array>
                    </mxGeometry>
                </mxCell>
                <mxCell id="33" style="edgeStyle=orthogonalEdgeStyle;rounded=0;orthogonalLoop=1;jettySize=auto;html=1;entryX=0.5;entryY=0;entryDx=0;entryDy=0;fontColor=#007FFF;fillColor=#1ba1e2;strokeColor=#006EAF;" edge="1" parent="1" source="23" target="7">
                    <mxGeometry relative="1" as="geometry"/>
                </mxCell>
                <mxCell id="23" value="" style="rounded=0;whiteSpace=wrap;html=1;labelBackgroundColor=none;fillColor=none;fontColor=#f0f0f0;strokeColor=#007FFF;" vertex="1" parent="1">
                    <mxGeometry x="332.5" y="250" width="200" height="90" as="geometry"/>
                </mxCell>
                <mxCell id="31" value="" style="rounded=0;whiteSpace=wrap;html=1;dashed=1;labelBackgroundColor=none;fillColor=none;fontColor=#f0f0f0;strokeColor=#B3B3B3;" vertex="1" parent="1">
                    <mxGeometry x="310" y="240" width="240" height="210" as="geometry"/>
                </mxCell>
                <mxCell id="40" value="" style="rounded=0;whiteSpace=wrap;html=1;labelBackgroundColor=none;strokeColor=#B3B3B3;fillColor=#FFFFFF;fontColor=#007FFF;" vertex="1" parent="1">
                    <mxGeometry x="10" y="450" width="10" height="10" as="geometry"/>
                </mxCell>
                <mxCell id="41" value="" style="rounded=0;whiteSpace=wrap;html=1;labelBackgroundColor=none;strokeColor=#B3B3B3;fillColor=#FFFFFF;fontColor=#007FFF;" vertex="1" parent="1">
                    <mxGeometry x="322.5" y="630" width="10" height="10" as="geometry"/>
                </mxCell>
                <mxCell id="42" value="" style="rounded=0;whiteSpace=wrap;html=1;labelBackgroundColor=none;strokeColor=#B3B3B3;fillColor=#FFFFFF;fontColor=#007FFF;" vertex="1" parent="1">
                    <mxGeometry x="630" y="390" width="10" height="10" as="geometry"/>
                </mxCell>
                <mxCell id="43" value="" style="rounded=0;whiteSpace=wrap;html=1;labelBackgroundColor=none;strokeColor=#B3B3B3;fillColor=#FFFFFF;fontColor=#007FFF;" vertex="1" parent="1">
                    <mxGeometry x="310" y="170" width="10" height="10" as="geometry"/>
                </mxCell>
            </root>
        </mxGraphModel>
    </diagram>
</mxfile>